<?xml version="1.0" encoding="utf-8"?>
<!-- Generator: Adobe Illustrator 27.2.0, SVG Export Plug-In . SVG Version: 6.00 Build 0)  -->
<svg version="1.1" id="Capa_2_00000057106455246413175180000001861378423099130775_"
	 xmlns="http://www.w3.org/2000/svg" xmlns:xlink="http://www.w3.org/1999/xlink" x="0px" y="0px" viewBox="0 0 196 96"
	 style="enable-background:new 0 0 196 96;" xml:space="preserve">
<style type="text/css">
	.st0{fill:#FFFFFF;}
	.st1{fill:#547D2E;}
</style>
<g id="Capa_1-2">
	<g>
		<path class="st0" d="M162.4,29.6c-0.8,0-1.6,0-2.4,0.1C154.1,12.4,137.5,0,118.1,0c-12.4,0-23.7,5.1-31.7,13.2
			c-4-1.5-8.3-2.3-12.8-2.3c-14.1,0-26.4,7.9-32.5,19.4c-2.4-0.5-4.9-0.8-7.4-0.8C15,29.6,0,44.4,0,62.8S15,96,33.6,96h128.8
			C181,96,196,81.1,196,62.8S181,29.6,162.4,29.6L162.4,29.6z"/>
		<g>
			<path class="st1" d="M75.7,67.3c-2.4,0-4.7-0.4-6.8-1.2c-2.1-0.8-3.9-1.9-5.5-3.4c-1.5-1.5-2.7-3.2-3.6-5.2
				c-0.9-2-1.3-4.1-1.3-6.5s0.4-4.5,1.3-6.5c0.9-2,2.1-3.7,3.6-5.2c1.6-1.5,3.4-2.6,5.5-3.4c2.1-0.8,4.4-1.2,6.8-1.2
				c2.7,0,5.2,0.5,7.5,1.4c2.2,0.9,4.1,2.3,5.6,4.1L84,44.7c-1.1-1.2-2.3-2.2-3.6-2.8c-1.3-0.6-2.8-0.9-4.4-0.9
				c-1.5,0-2.8,0.2-4.1,0.7s-2.3,1.2-3.2,2.1s-1.6,2-2.1,3.2c-0.5,1.2-0.7,2.6-0.7,4.1s0.2,2.9,0.7,4.1c0.5,1.2,1.2,2.3,2.1,3.2
				c0.9,0.9,2,1.6,3.2,2.1c1.2,0.5,2.6,0.7,4.1,0.7c1.6,0,3-0.3,4.4-1c1.3-0.6,2.5-1.6,3.6-2.8l4.8,4.3c-1.5,1.8-3.4,3.2-5.6,4.2
				C80.9,66.9,78.4,67.3,75.7,67.3L75.7,67.3z"/>
			<path class="st1" d="M101.1,66.8h-7.4V35.4h7.4V66.8z M116,53.9h-15.5v-6.1H116V53.9z M115.4,35.4h7.3v31.4h-7.3V35.4z"/>
			<path class="st1" d="M127.4,77.9V75l8.7-11.6h4.5L132.1,75l-2.1-0.6h14.6v3.4H127.4L127.4,77.9z M137.3,81.7v-3.8l0.1-3.4V71h4
				v10.7C141.5,81.7,137.3,81.7,137.3,81.7z"/>
		</g>
	</g>
</g>
</svg>
