<?xml version="1.0" encoding="utf-8"?>
<!-- Generator: Adobe Illustrator 27.2.0, SVG Export Plug-In . SVG Version: 6.00 Build 0)  -->
<svg version="1.1" id="Capa_1" xmlns="http://www.w3.org/2000/svg" xmlns:xlink="http://www.w3.org/1999/xlink" x="0px" y="0px"
	 viewBox="0 0 120 105" style="enable-background:new 0 0 120 105;" xml:space="preserve">
<style type="text/css">
	.st0{fill:#468DE0;}
	.st1{opacity:0.25;}
	.st2{opacity:0.5;fill:#683AAF;enable-background:new    ;}
	.st3{fill:#8B2E00;}
	.st4{fill:#400200;}
	.st5{fill:#AEB2D6;}
	.st6{clip-path:url(#SVGID_00000123442683648178646510000017954147900634886560_);}
	.st7{fill:#6CA8FF;}
	.st8{fill:#FFFFFF;}
	.st9{fill:#DD8507;}
	.st10{fill:#FFD41F;}
</style>
<g>
	<g id="Capa_2_00000050626749817847405070000003363666395221737357_">
		<g id="Capa_1-2">
			<g>
				<g>
					<polygon class="st0" points="11.4,84.5 57.6,89.1 57.6,71.5 					"/>
					<g class="st1">
						<polygon class="st2" points="57.6,71.5 11.4,84.5 57.6,82.8 						"/>
					</g>
				</g>
				<g>
					<polygon class="st3" points="4,12.7 8.8,11.9 24.9,104.1 20.1,105 					"/>
					<polygon class="st4" points="4,12.7 8.8,11.9 9.6,16.4 4.8,17.3 					"/>
					<path class="st5" d="M10.2,10.1c0.4,2.2-1.1,4.4-3.3,4.8c-2.2,0.4-4.4-1.1-4.7-3.3C1.7,9.3,3.2,7.1,5.4,6.7
						C7.7,6.4,9.8,7.9,10.2,10.1z"/>
				</g>
				<g>
					<g>
						<defs>
							<polygon id="SVGID_1_" points="120,65.4 11.4,84.7 0,19.3 108.6,0 99.2,35.4 							"/>
						</defs>
						<clipPath id="SVGID_00000100382163595728588410000010520736792894014128_">
							<use xlink:href="#SVGID_1_"  style="overflow:visible;"/>
						</clipPath>
						<g style="clip-path:url(#SVGID_00000100382163595728588410000010520736792894014128_);">
							<g>
								<g>
									<polygon class="st7" points="0,19.3 108.6,0 112.4,21.7 3.8,41 									"/>
									<polygon class="st8" points="3.8,41 112.4,21.7 116.2,43.5 7.6,62.8 									"/>
									<polygon class="st7" points="7.6,62.8 116.2,43.5 120,65.2 11.4,84.5 									"/>
								</g>
								<g>
									<ellipse class="st9" cx="59.9" cy="42.3" rx="4.8" ry="4.8"/>
									<g>
										<g>
											<g>
												<g>
													<polygon class="st9" points="58.9,39.4 58.1,32.2 58.2,32.2 59.8,39.2 													"/>
													<polygon class="st9" points="60.9,45.1 61.7,52.3 61.6,52.3 59.9,45.3 													"/>
												</g>
												<g>
													<polygon class="st9" points="62.7,41.3 69.8,40.4 69.9,40.6 62.9,42.2 													"/>
													<polygon class="st9" points="57,43.3 49.9,44.1 49.9,44 56.9,42.3 													"/>
												</g>
											</g>
											<g>
												<g>
													<polygon class="st9" points="61.2,39.5 65.6,33.9 65.7,33.9 62,40.1 													"/>
													<polygon class="st9" points="58.6,45 54.1,50.7 54,50.6 57.8,44.4 													"/>
												</g>
												<g>
													<polygon class="st9" points="62.6,43.6 68.2,48.1 68.1,48.2 62,44.4 													"/>
													<polygon class="st9" points="57.2,41 51.5,36.5 51.6,36.4 57.7,40.1 													"/>
												</g>
											</g>
										</g>
										<g>
											<g>
												<g>
													<polygon class="st9" points="60,39.2 62.1,32.3 62.2,32.3 61,39.5 													"/>
													<polygon class="st9" points="59.7,45.3 57.7,52.2 57.5,52.2 58.7,45.1 													"/>
												</g>
												<g>
													<polygon class="st9" points="62.9,42.5 69.8,44.5 69.7,44.6 62.6,43.4 													"/>
													<polygon class="st9" points="56.9,42.1 50,40 50,39.9 57.1,41.1 													"/>
												</g>
											</g>
											<g>
												<g>
													<polygon class="st9" points="62.1,40.3 68.4,36.8 68.5,36.9 62.6,41.1 													"/>
													<polygon class="st9" points="57.6,44.3 51.3,47.7 51.2,47.7 57.1,43.4 													"/>
												</g>
												<g>
													<polygon class="st9" points="61.9,44.5 65.3,50.9 65.2,51 61,45.1 													"/>
													<polygon class="st9" points="57.9,40 54.4,33.6 54.5,33.6 58.7,39.5 													"/>
												</g>
											</g>
										</g>
									</g>
									<g>
										<g>
											<g>
												<g>
													<polygon class="st9" points="59.4,39.3 60.1,32.1 60.2,32.1 60.4,39.3 													"/>
													<polygon class="st9" points="60.3,45.3 59.7,52.5 59.6,52.5 59.3,45.2 													"/>
												</g>
												<g>
													<polygon class="st9" points="62.8,41.8 70,42.5 70,42.6 62.8,42.8 													"/>
													<polygon class="st9" points="56.9,42.7 49.7,42.1 49.7,42 56.9,41.7 													"/>
												</g>
											</g>
											<g>
												<g>
													<polygon class="st9" points="61.7,39.8 67.2,35.2 67.2,35.3 62.4,40.6 													"/>
													<polygon class="st9" points="58.1,44.7 52.6,49.4 52.5,49.3 57.4,44 													"/>
												</g>
												<g>
													<polygon class="st9" points="62.3,44.1 66.9,49.6 66.8,49.7 61.6,44.8 													"/>
													<polygon class="st9" points="57.5,40.5 52.8,34.9 52.9,34.8 58.2,39.8 													"/>
												</g>
											</g>
										</g>
										<g>
											<g>
												<g>
													<polygon class="st9" points="60.6,39.3 64,32.9 64.1,33 61.5,39.8 													"/>
													<polygon class="st9" points="59.1,45.2 55.8,51.6 55.6,51.6 58.2,44.8 													"/>
												</g>
												<g>
													<polygon class="st9" points="62.8,43 69.1,46.4 69.1,46.5 62.4,44 													"/>
													<polygon class="st9" points="57,41.5 50.6,38.1 50.7,38 57.4,40.6 													"/>
												</g>
											</g>
											<g>
												<g>
													<polygon class="st9" points="62.5,40.7 69.3,38.6 69.4,38.7 62.8,41.7 													"/>
													<polygon class="st9" points="57.3,43.8 50.4,45.9 50.4,45.8 56.9,42.9 													"/>
												</g>
												<g>
													<polygon class="st9" points="61.4,44.9 63.5,51.8 63.4,51.9 60.5,45.2 													"/>
													<polygon class="st9" points="58.4,39.7 56.2,32.7 56.3,32.7 59.3,39.3 													"/>
												</g>
											</g>
										</g>
									</g>
									<path class="st10" d="M63.5,41.6c0.4,2-1,4-3,4.3s-3.9-1-4.3-3c-0.4-2,1-4,3-4.3C61.2,38.2,63.2,39.6,63.5,41.6z"/>
								</g>
							</g>
						</g>
					</g>
					<g>
						<g class="st1">
							<polygon class="st2" points="12.9,17 53.1,9.9 64.5,75.1 24.3,82.3 							"/>
						</g>
						<g class="st1">
							<polygon class="st2" points="0,19.3 3,18.8 14.4,84 11.4,84.5 							"/>
						</g>
					</g>
				</g>
			</g>
		</g>
	</g>
</g>
</svg>
