<?xml version="1.0" encoding="utf-8"?>
<!-- Generator: Adobe Illustrator 27.2.0, SVG Export Plug-In . SVG Version: 6.00 Build 0)  -->
<svg version="1.1" id="Capa_2_00000176751968283483351520000012636548670218023863_"
	 xmlns="http://www.w3.org/2000/svg" xmlns:xlink="http://www.w3.org/1999/xlink" x="0px" y="0px" viewBox="0 0 1920 1300"
	 style="enable-background:new 0 0 1920 1300;" xml:space="preserve">
<style type="text/css">
	.st0{fill:#547D2E;}
</style>
<g id="Capa_1-2">
	<path class="st0" d="M1920,98.2c-11.9,0.6-43.8,3.3-49.7,9.7c-22,4.9-21.6,7.6-37.9-8.6c-16.8-30.6-50.7-7.9-42.9-18
		c-7.7-18.5-28.8-7.6-36.2-18.1c-8.3-14.1-32.9-17.2-36.8-18.1c-10.8,1.7-7.5-3.9-31.2-15.4c-39.7-24.3-16.1-7-40.4-6.1
		c13.3-4.2-57.6-18.2-47.6,10.1c-35.2,21.8-37.5-12.2-41.2,21c-49.9-6.3-28.9,25.5-53.5,11.3c-27.3-4.9-35.6,11.7-49.5-6.1
		c-14.4-20.2-13.6-13.8-49.2-7.6c3,18.8-33.9-9.2-52.6,6.9c-29.7,5.5-18.6,32.8-42.6,15.1c-19.5-4.6-14.1-6.3-47.8-4.2
		c-25.6-36.8-49.6,12.2-43-19c-12.7-8.4-34.5,11.2-40.3-17.2c-7.2,21.6-31.7-22.7-46.8-5.7c8.8,19.4-30.5,40.7-38.9,11.4
		c-6.6-17-44.5,13-40.7,14.2c0.8,18.4-8.9,29.4-37,2.4c-14.9,4-26.7-16.5-38.8-0.9c-30.6,10.3-37.3,1.3-36.8,3.8
		c-33.7-31.6-28.7-13.1-15.1,11.5c-6.2,18.3-21.7-8.4-16.1,11.1c-8.4-2.3-20.6,17.5-20.6,1c-10.9-7.9-9.4-14.4-20.4-2.2
		c-18.2-2.1-30,24.7-42.6-12.6c-3.6,10-22.3-26-41.2-16.5c-29.6,16.8-37.5-24.5-42.1-13.9c-18.6,9.9-16-17.6-34.3-3.1
		c-12.9,9.4-25.1,9.5-30.9,6c-0.1,8,6,29.9-31.7,10.7c-9.3-6.7-4.7,23.2-41.5,7.8c-1.9,12.6-26.9-0.5-38.6-1.8
		c-10.6-11.7-45.3,6.2-43.1-2.2c-23.2,5.2-23.5-2.1-45.5,5.4c-20.4,7.4-25.1-7.5-45.3-1c-45.1,7.8-15.1-10.9-39.6-24.2
		c-14.2,3.3-14.5-9.6-43.6-20.3c-22.4,25.3-30-19.9-46-0.2c-19.2-10.8-24.7-29.2-45,7.7c-42.5,19.4-23,21.1-44.1,10.2
		c-11,23-32.6-12.1-43.2,7.4c-16.5,1.5-51,8.7-45.2-1.4c-7.9,9.2-26.9,28.2-40.2-5.9C66.2,47.6,26.9,65.5,41,47.7
		C25.8,46.1,8.2,44,0.6,66.9C0.4,67,0.2,67.1,0,67.2v1210.1c0,1.5,1.3,2.6,2.7,2.2c14.3-4.1,30-3.3,25.9,5.6
		c-0.7,1.6,0.4,3.5,2.1,3.3c27.1-2.8,36.1-1.4,38.6-4.2c0.4-0.5,1-0.7,1.6-0.6c24.9,1.8,34.5,2.7,44.3-2.6c0.3-0.1,0.6-0.2,0.9-0.3
		c14.8-0.8,32.5,4.5,42.6,0.6c1.3-0.5,2.7,0.5,2.8,2c1,11.8,32-2.5,44.1-12.3c0.4-0.3,0.9-0.5,1.5-0.5c13.1,1.3,46.4-8.8,55-14.5
		c1.1-0.7,1.3-2.3,0.5-3.4c0,0,0,0,0,0c1,0.2,1.5,0.6,1.6,1.1c0.1,0.5,0.2,1.1,0.6,1.4c13.5,14.1,21.2-12.7,32.8-1.4
		c0.7,0.7,0.9,1.9,0.4,2.8c-2.6,4.8,21.5-19.4,48.8,22.6c0.5,0.8,1.5,1.2,2.4,0.9c15.7-5.2,43.9,30.1,37.9,17.1
		c-0.8-1.7,0.5-3.5,2.3-3.2c23.2,4.2,27.9-10,28.6-9c0.6,0.8,1.5,1.3,2.3,0.7c16.4-10.9,18.8-2.6,33.3-11.5c1.3-0.8,1.4-2.7,0.3-3.7
		c-7.4-6.6,14-17,38.4-7.4c0.5,0.2,1,0.2,1.5,0c28.7-11,12.8,26.3,36.1-2.6c-5.7,3.7,30,11.8,38.2-2.9c1.9-10,74.9,10.3,49.3-8.6
		c-1.3-0.9-1.2-2.9,0.1-3.8c30.2-19.9,18.6-15.3,39.4-13.2c0.9,0.1,1.9-0.3,2.2-1.3c0.8-2.8,26.9-6.5,51.2-9c0.1,0,0.3,0,0.4,0
		c31.4,3.2,17.5,8.7,46.6,1.4c0.5-0.1,1,0,1.5,0.2c10.7,5.9,33.1,7.7,32.4,12.7c-0.1,0.5-0.1,1,0.1,1.5c13,28.8,29.2,45,28.4,21.3
		c0-0.9-0.5-1.6-1.3-2c-1-0.5-0.8-0.5,1.2,0.1c0,0.2,0,0.3,0,0.4c6.9,3,32,13,32.4,17.3c0.1,0.7,0.6,1.4,1.3,1.7
		c27.6,13,26.9,12,38.3,2.1c0.4-0.4,1-0.5,1.5-0.5c5.5,0.3,33.7-18.8,38.6-12.3c0.5,0.7,1.4,0.9,2.1,0.7
		c10.2-2.5,27.4,20.8,40.3,11.6c0.4-0.3,0.8-0.4,1.3-0.4c16.7,0.3,29.7-7.5,42.1,8.4c0.8,1,2.2,1.1,3.1,0.3
		c13.4-12.9,7-5.3,30.1-2.5c0.1,0,0.1,0,0.2,0c7.2,0.3,19.8,2.2,35.8-6c1.5-0.8,3.1,0.5,3.1,2.2c-0.6,10.3,14-10.3,30-13.1
		c1-0.2,1.7-1,1.8-2c1-8.9,26-33,33.4-15.1c0.3,0.8,1.1,1.4,2,1.4c11.4-0.4,24.9,6.4,27-10.1c0.1-0.7,0.5-1.3,1-1.7
		c34.1-21.7,19.9-8.9,33.5-3.9c1.3,0.5,2.6-0.4,2.8-1.8c1.6-8.4,19.7-2.6,33.6,2.1c0.3,0.1,0.6,0.3,0.9,0.6c8.8,9.4,2,17.3,31.7,5.7
		c0.7-0.3,1.6-0.1,2.2,0.4c17.1,15.6-9.5,11.3,14.6,15c0.7,0.1,1.4,0.6,1.7,1.4c7.7,19,13.5,13.1,15,13.4c7-2.2,26.1,0.7,50.1,4
		c0.4,0.1,0.9,0,1.3-0.2c4.9-2.8,25.8-13,50.3-14.4c0.2,0,0.3,0,0.5-0.1c37.4-11.4,44-14.9,50.2-17.3c38-13.2,31.4-21.4,48.9-4.3
		c0.3,0.3,0.7,0.5,1.2,0.6c27.2,4.1,17.3,10.5,34.3,7.6c0.8-0.1,1.7,0.3,2.1,1c5.9,9.9,15.8,9.4,38.4,3.5c32.9-8.6,4.5-5.2,40.7-6.5
		c0.1,0,0.3,0,0.4-0.1c22.5-5.2,37-15.2,39.1-20.4c0.1-0.3,0.3-0.5,0.5-0.8c19.3-20.2,32.3-18.6,38.6-16.4c1.2,0.4,2.5-0.4,2.8-1.7
		c5.1-26.3,16,21.9,39.5-0.4c0.1-0.1,0.3-0.3,0.5-0.4c22.2-11.4,20.1-4.3,39,3.1c0.4,0.2,0.9,0.2,1.3,0.1c20.9-6,9.9,28.1,22.3,16.7
		c1-0.9,2.5-0.5,3.2,0.7c2.6,4.8,19.3-14.7,23.6,15.9c0,0.3,0.1,0.6,0.3,0.8c24,43,20.5-8.8,42.8,14.6c0,0,0.1,0.1,0.1,0.1
		c5.9,7.2,16.3,6.7,25.9,4c0.9-0.3,1.6-1.2,1.6-2.2V100.8c-1.9-0.7-3.8-1.3-5.9-2.1c2.4-0.1,4.3-0.2,5.9-0.3L1920,98.2L1920,98.2z"
		/>
</g>
</svg>
