<?xml version="1.0" encoding="utf-8"?>
<!-- Generator: Adobe Illustrator 27.2.0, SVG Export Plug-In . SVG Version: 6.00 Build 0)  -->
<svg version="1.1" id="Capa_2_00000081646736357131329340000011926680662717612971_"
	 xmlns="http://www.w3.org/2000/svg" xmlns:xlink="http://www.w3.org/1999/xlink" x="0px" y="0px" viewBox="0 0 1920.7 145"
	 style="enable-background:new 0 0 1920.7 145;" xml:space="preserve">
<style type="text/css">
	.st0{fill:#3D596B;}
</style>
<g>
	<path class="st0" d="M1918.1,144.7c-5.2-0.7-10.6-1.4-15.9-2.1l0.4-3c5.3,0.7,10.6,1.4,15.8,2.1L1918.1,144.7z M1886.4,140.4
		c-5.3-0.8-10.6-1.5-15.8-2.3l0.5-3c5.2,0.8,10.6,1.6,15.8,2.3L1886.4,140.4z M1854.8,135.6c-5.2-0.8-10.5-1.7-15.8-2.6l0.5-3
		c5.3,0.9,10.6,1.8,15.8,2.6L1854.8,135.6z M1823.2,130.3c-5.2-0.9-10.5-1.9-15.7-2.9l0.5-2.9c5.3,1,10.5,1.9,15.7,2.9L1823.2,130.3
		z M1791.8,124.4c-5.2-1-10.4-2-15.7-3.1l0.6-2.9c5.3,1.1,10.5,2.1,15.7,3.1L1791.8,124.4z M1760.4,118.1
		c-5.2-1.1-10.4-2.2-15.6-3.4l0.6-2.9c5.2,1.1,10.4,2.3,15.6,3.4L1760.4,118.1z M1729.1,111.2c-5.2-1.2-10.4-2.4-15.6-3.6l0.7-2.9
		c5.2,1.2,10.4,2.4,15.6,3.6L1729.1,111.2z M1698,103.9c-5.1-1.3-10.3-2.5-15.5-3.8l0.7-2.9c5.2,1.3,10.4,2.6,15.5,3.8L1698,103.9z
		 M1667,96.1c-5.1-1.3-10.3-2.7-15.5-4.1l0.8-2.9c5.2,1.4,10.3,2.7,15.4,4.1L1667,96.1z M1636.1,87.8c-5.1-1.4-10.2-2.8-15.4-4.3
		l0.8-2.9c5.2,1.5,10.3,2.9,15.4,4.3L1636.1,87.8z M1605.3,79.1c-5.1-1.5-10.2-3-15.3-4.5l0.9-2.9c5.1,1.5,10.2,3,15.3,4.5
		L1605.3,79.1z M1574.6,69.9c-5.1-1.6-10.2-3.1-15.3-4.8l0.9-2.9c5.1,1.6,10.2,3.2,15.3,4.8L1574.6,69.9z M1544.1,60.2
		c-4.9-1.6-10.1-3.2-15.3-4.7l0.8-2.9c5.2,1.5,10.4,3.1,15.3,4.7L1544.1,60.2z M1513.5,51.3c-5-1.4-10.2-2.7-15.5-4l0.7-2.9
		c5.2,1.3,10.5,2.6,15.5,4L1513.5,51.3z M1482.5,43.6c-5.1-1.2-10.3-2.3-15.6-3.4l0.6-2.9c5.3,1.1,10.5,2.3,15.6,3.4L1482.5,43.6z
		 M1451.3,36.9c-5.1-1-10.4-2-15.7-3l0.5-2.9c5.3,1,10.6,2,15.7,3L1451.3,36.9z M167.9,35.2c-3.2,0-6.2,0-9.2-0.1l0-3
		c5,0.1,10.3,0.1,16,0l0,3C172.3,35.1,170.1,35.2,167.9,35.2z M190.7,34.9l-0.1-3c5.1-0.1,10.4-0.2,16-0.4l0.1,3
		C201.1,34.7,195.8,34.8,190.7,34.9z M142.6,34.7l-1,0c-4.9-0.2-10-0.6-15-1l0.3-3c5,0.5,10,0.8,14.9,1l1,0L142.6,34.7z M222.7,34
		l-0.1-3c5.2-0.2,10.5-0.4,16-0.6l0.1,3C233.2,33.6,227.9,33.8,222.7,34z M254.7,32.7l-0.1-3c5.2-0.2,10.5-0.5,16-0.7l0.1,3
		C265.2,32.2,259.9,32.5,254.7,32.7z M110.6,31.8c-5.2-0.7-10.5-1.5-15.9-2.5l0.5-3c5.3,0.9,10.6,1.8,15.7,2.5L110.6,31.8z
		 M1419.9,31.2c-5.2-0.9-10.5-1.7-15.8-2.6l0.5-3c5.3,0.8,10.6,1.7,15.8,2.6L1419.9,31.2z M286.7,31.2l-0.1-3
		c5.2-0.3,10.6-0.5,16-0.8l0.2,3C297.2,30.7,291.9,31,286.7,31.2z M318.6,29.6l-0.2-3c5.2-0.3,10.6-0.6,16-0.9l0.2,3
		C329.2,29,323.9,29.3,318.6,29.6z M350.6,27.8l-0.2-3c5.3-0.3,10.6-0.6,16-0.9l0.2,3C361.2,27.2,355.8,27.5,350.6,27.8z
		 M1388.3,26.3c-5.2-0.7-10.5-1.5-15.8-2.2l0.4-3c5.3,0.7,10.7,1.5,15.9,2.2L1388.3,26.3z M79,26.2c-5.1-1.1-10.4-2.3-15.6-3.6
		l0.7-2.9c5.2,1.3,10.4,2.5,15.5,3.6L79,26.2z M382.5,26l-0.2-3l16-0.9l0.2,3L382.5,26z M414.5,24.2l-0.2-3l16-0.9l0.2,3L414.5,24.2
		z M446.4,22.4l-0.2-3l16-0.9l0.2,3L446.4,22.4z M1356.6,22c-5.2-0.6-10.5-1.3-15.9-1.9l0.3-3c5.4,0.6,10.7,1.3,15.9,1.9L1356.6,22z
		 M478.3,20.7l-0.2-3l16-0.9l0.2,3L478.3,20.7z M510.3,18.9l-0.2-3c5.3-0.3,10.6-0.6,16-0.9l0.2,3C520.9,18.3,515.6,18.6,510.3,18.9
		z M47.9,18.5c-5-1.4-10.2-2.9-15.4-4.6l0.9-2.9c5.1,1.6,10.3,3.1,15.3,4.5L47.9,18.5z M1324.9,18.4c-5.3-0.6-10.6-1.1-15.9-1.6
		l0.3-3c5.3,0.5,10.6,1.1,15.9,1.6L1324.9,18.4z M542.2,17.2l-0.2-3c5.3-0.3,10.6-0.6,16-0.8l0.2,3
		C552.8,16.6,547.5,16.9,542.2,17.2z M574.2,15.5l-0.2-3c5.3-0.3,10.6-0.5,16-0.8l0.1,3C584.8,15,579.5,15.3,574.2,15.5z
		 M1293.1,15.2c-5.3-0.5-10.6-0.9-15.9-1.4l0.3-3c5.3,0.4,10.7,0.9,15.9,1.4L1293.1,15.2z M606.1,13.9l-0.1-3
		c5.3-0.3,10.6-0.5,16-0.8l0.1,3C616.7,13.4,611.4,13.7,606.1,13.9z M1261.2,12.5c-5.3-0.4-10.6-0.8-15.9-1.2l0.2-3
		c5.3,0.4,10.7,0.8,16,1.2L1261.2,12.5z M638,12.4l-0.1-3c5.3-0.2,10.6-0.5,16-0.7l0.1,3C648.7,11.9,643.4,12.2,638,12.4z M670,11
		l-0.1-3c5.3-0.2,10.6-0.5,16-0.7l0.1,3C680.6,10.5,675.3,10.8,670,11z M1229.3,10.3c-5.3-0.3-10.6-0.7-16-1l0.2-3
		c5.3,0.3,10.7,0.6,16,1L1229.3,10.3z M702,9.7l-0.1-3c5.3-0.2,10.6-0.4,16-0.6l0.1,3C712.6,9.2,707.3,9.4,702,9.7z M17.3,9
		c-5-1.7-10.1-3.5-15.1-5.3l1-2.8c5,1.8,10.1,3.6,15,5.3L17.3,9z M733.9,8.4l-0.1-3c5.3-0.2,10.6-0.4,16-0.6l0.1,3
		C744.6,8,739.2,8.2,733.9,8.4z M1197.4,8.4c-5.3-0.3-10.6-0.6-16-0.8l0.1-3c5.3,0.3,10.7,0.5,16,0.8L1197.4,8.4z M765.9,7.3l-0.1-3
		c5.3-0.2,10.6-0.4,15.9-0.5l0.1,3C776.5,6.9,771.2,7.1,765.9,7.3z M1165.5,6.8c-5.3-0.2-10.6-0.4-16-0.7l0.1-3
		c5.3,0.2,10.7,0.4,16,0.7L1165.5,6.8z M797.7,6.3l-0.1-3c5.3-0.2,10.6-0.3,15.9-0.5l0.1,3C808.4,6,803,6.1,797.7,6.3z M1133.6,5.6
		c-5.3-0.2-10.6-0.4-16-0.5l0.1-3c5.3,0.2,10.7,0.3,16,0.5L1133.6,5.6z M829.6,5.4l-0.1-3c5.3-0.1,10.6-0.3,16-0.4l0.1,3
		C840.3,5.1,834.9,5.3,829.6,5.4z M1101.6,4.7c-5.3-0.1-10.6-0.3-16-0.4l0.1-3c5.3,0.1,10.7,0.2,16,0.4L1101.6,4.7z M861.6,4.7
		l-0.1-3c5.3-0.1,10.7-0.2,16-0.3l0.1,3C872.2,4.4,866.9,4.5,861.6,4.7z M893.5,4.1l0-3c5.3-0.1,10.7-0.2,16-0.2l0,3
		C904.2,3.9,898.9,4,893.5,4.1z M1069.6,4c-5.3-0.1-10.7-0.2-16-0.3l0-3c5.4,0.1,10.7,0.2,16,0.3L1069.6,4z M925.5,3.6l0-3
		c5.3-0.1,10.7-0.1,16-0.2l0,3C936.2,3.5,930.9,3.6,925.5,3.6z M1037.6,3.5c-5.3-0.1-10.7-0.1-16-0.1l0-3c5.4,0,10.7,0.1,16,0.1
		L1037.6,3.5z M957.5,3.4l0-3c5.3,0,10.7-0.1,16-0.1l0,3C968.2,3.3,962.9,3.3,957.5,3.4z M1005.5,3.3c-5.3,0-10.7,0-16,0l0-3
		c5.3,0,10.7,0,16,0L1005.5,3.3z"/>
</g>
</svg>
