<?xml version="1.0" encoding="utf-8"?>
<!-- Generator: Adobe Illustrator 27.2.0, SVG Export Plug-In . SVG Version: 6.00 Build 0)  -->
<svg version="1.1" id="Capa_2_00000075144108904829996260000007841478255608819633_"
	 xmlns="http://www.w3.org/2000/svg" xmlns:xlink="http://www.w3.org/1999/xlink" x="0px" y="0px" viewBox="0 0 1920.8 223"
	 style="enable-background:new 0 0 1920.8 223;" xml:space="preserve">
<style type="text/css">
	.st0{fill:#3D596B;}
</style>
<g id="Capa_1-2">
	<g>
		<g>
			<path class="st0" d="M7.8,4.2C5.1,3.7,2.5,3.3,0,3l0.4-3c2.6,0.3,5.2,0.7,8,1.2L7.8,4.2z"/>
		</g>
		<g>
			<path class="st0" d="M1308.5,223L1308.5,223c-5.2,0-10.6,0-15.9,0v0h0l0-2.9h0.1c5,0,10.2,0,15.8,0.1l0,0V223z M1324.3,223
				L1324.3,223l-0.1-3h0c5.2,0,10.5,0,15.9-0.1l0,0l0,2.9h-0.1C1335.1,222.9,1329.7,223,1324.3,223z M1276.8,222.8L1276.8,222.8
				c-5.2,0-10.5-0.1-15.9-0.1v0h0l0-2.9h0.1c4.8,0.1,9.8,0.1,15.9,0.1h0L1276.8,222.8z M1356,222.8L1356,222.8l-0.1-3h0
				c5.4,0,10.7-0.1,15.8-0.2h0.1l0,3h-0.1C1366.5,222.7,1361.1,222.8,1356,222.8z M1245.1,222.6L1245.1,222.6
				c-5.2-0.1-10.5-0.1-15.9-0.2l0,0l0-3h0c5,0.1,10.2,0.1,15.8,0.2h0L1245.1,222.6z M1387.8,222.4L1387.8,222.4l-0.1-3h0
				c5.6-0.1,10.8-0.2,15.8-0.3h0l0.1,3h0C1398.3,222.2,1393,222.3,1387.8,222.4z M1213.4,222.1L1213.4,222.1
				c-4.8-0.1-9.8-0.2-15.9-0.3h-0.1l0.1-3c6.1,0.1,11.2,0.2,15.9,0.3h0.1L1213.4,222.1z M1419.4,221.7l-0.1-3h0.1
				c6-0.2,11.1-0.3,15.8-0.5h0.1l0.1,3h0C1430.3,221.5,1424.9,221.6,1419.4,221.7L1419.4,221.7z M1181.6,221.6L1181.6,221.6
				c-6.1-0.1-11.1-0.2-15.9-0.3h-0.1l0.1-3h0c4.9,0.1,10.1,0.2,15.8,0.3h0.1L1181.6,221.6z M1149.9,220.9L1149.9,220.9
				c-5.6-0.1-10.8-0.3-15.9-0.4v0h-0.1l0.1-2.9h0c5.1,0.1,10.5,0.3,15.9,0.4h0L1149.9,220.9z M1451.1,220.8l-0.1-3h0
				c5.3-0.2,10.7-0.4,15.8-0.6h0.1l0.1,3h0C1461.8,220.4,1456.5,220.6,1451.1,220.8L1451.1,220.8z M1118.2,220.1L1118.2,220.1
				c-6.1-0.2-11.2-0.3-15.9-0.4h0l0.1-3h0c5.8,0.2,11,0.3,15.9,0.4h0L1118.2,220.1z M1482.8,219.4l-0.1-3h0
				c5.3-0.3,10.6-0.5,15.8-0.8h0l0.2,3l0,0C1493.5,218.9,1488.1,219.1,1482.8,219.4L1482.8,219.4z M1086.5,219.2L1086.5,219.2
				c-6.2-0.2-11.2-0.3-15.9-0.5h0l0.1-3l0,0c5.2,0.2,10.5,0.3,15.8,0.5h0L1086.5,219.2z M1054.8,218.3L1054.8,218.3
				c-5.8-0.2-10.9-0.3-15.9-0.5h-0.1l0.1-3h0c5,0.2,10,0.3,15.8,0.5h0.1L1054.8,218.3z M1514.5,217.6l-0.2-3h0
				c5.3-0.3,10.6-0.7,15.8-1.1h0.1l0.2,3h0C1525.2,216.9,1519.9,217.3,1514.5,217.6L1514.5,217.6z M1023.1,217.2L1023.1,217.2
				c-5.8-0.2-11-0.4-15.9-0.5l0-0.1l0.1-2.9c5.8,0.2,11,0.4,15.9,0.5h0L1023.1,217.2z M991.4,216.1L991.4,216.1
				c-4.9-0.2-10.1-0.4-15.8-0.6v0l-0.1-0.1l0.1-2.9h0c5,0.2,10.2,0.4,15.8,0.6h0L991.4,216.1z M1546.1,215.3l-0.2-3l0,0
				c5.4-0.4,10.7-0.9,15.8-1.4h0l0.3,3l0,0C1557,214.4,1551.6,214.8,1546.1,215.3L1546.1,215.3z M959.7,215L959.7,215
				c-4.9-0.2-10.1-0.4-15.9-0.6h0l0.1-3l0.1,0c5,0.2,10.2,0.4,15.8,0.6h0L959.7,215z M928,213.7L928,213.7
				c-5.3-0.2-10.6-0.4-15.9-0.6h-0.1l0.1-3h0.1c4.8,0.2,9.6,0.4,14.3,0.6l1.6,0.1L928,213.7z M896.3,212.5L896.3,212.5
				c-5-0.2-9.9-0.4-14.9-0.6l-1,0l0.1-3h0.1c5.3,0.2,10.6,0.4,15.8,0.7h0.1L896.3,212.5z M1577.7,212.3l-0.3-3l0,0
				c5.3-0.5,10.6-1.1,15.7-1.8h0.1l0.3,3h0C1588.5,211.2,1583.2,211.8,1577.7,212.3L1577.7,212.3z M864.6,211.1L864.6,211.1
				c-5.3-0.2-10.6-0.5-15.9-0.7h-0.1l0.1-3h0.1c5.3,0.2,10.6,0.5,15.8,0.7h0.1L864.6,211.1z M832.9,209.8L832.9,209.8
				c-5.4-0.2-10.8-0.5-15.9-0.8H817l0.1-2.9h0.1V206c5.3,0.3,10.7,0.5,15.8,0.8h0L832.9,209.8z M1609.2,208.6l-0.4-3l0,0
				c5.3-0.7,10.6-1.5,15.7-2.2h0l0.4,3l0,0C1619.8,207.1,1614.6,207.9,1609.2,208.6L1609.2,208.6z M801.3,208.1L801.3,208.1
				c-5-0.3-10.1-0.6-15.9-1l-0.1,0l0.2-3h0c5.3,0.3,10.6,0.7,15.8,1h0.1L801.3,208.1z M769.6,206.1L769.6,206.1
				c-5.1-0.4-10.4-0.8-15.9-1.2l-0.1,0l0.2-2.9h0.1c5.7,0.4,10.9,0.8,15.8,1.2l0.1,0L769.6,206.1z M1640.6,203.9l-0.5-3l0,0
				c5.2-0.9,10.4-1.8,15.6-2.8l0,0l0.5,2.9l0,0C1651.2,202.1,1645.9,203,1640.6,203.9L1640.6,203.9z M738,203.6L738,203.6
				c-5.1-0.4-10.2-0.9-15.9-1.4h0l0.3-3l0.1,0c5.6,0.5,10.8,1,15.8,1.4l0,0L738,203.6z M706.4,200.8L706.4,200.8
				c-5.1-0.5-10.4-1-15.8-1.6l0,0l0.3-3h0c5.4,0.6,10.7,1.1,15.8,1.6l0.1,0L706.4,200.8z M1671.8,198.1l-0.6-2.9l0,0
				c5.2-1.1,10.4-2.2,15.4-3.4l0.1,0l0.7,2.9l-0.1,0C1682.3,195.9,1677.1,197,1671.8,198.1L1671.8,198.1z M674.8,197.5L674.8,197.5
				c-5.4-0.6-10.7-1.2-15.8-1.8l-0.1,0l0.4-3l0,0c5.3,0.6,10.6,1.2,15.7,1.8l0,0L674.8,197.5z M643.3,193.7L643.3,193.7
				c-5.7-0.7-10.9-1.4-15.8-2.1l0,0h-0.1l0.4-2.9l0,0c5,0.7,10.2,1.3,15.7,2l0.1,0L643.3,193.7z M1702.9,191.3l-0.8-3.2h0.1
				c5.1-1.3,10.2-2.7,15.3-4.1l0,0l0.8,2.9l0,0c-5.1,1.4-10.3,2.8-15.3,4.1V191.3z M611.8,189.5L611.8,189.5
				c-5.1-0.7-10.4-1.5-15.7-2.3l0,0v0l0.4-2.9l0.1,0c5.2,0.8,10.5,1.5,15.7,2.3l0,0L611.8,189.5z M580.5,184.8L580.5,184.8
				c-5.4-0.8-10.7-1.7-15.7-2.5l-0.1,0.4v-0.5l0.5-2.9l0,0c5.3,0.9,10.6,1.7,15.6,2.5l0,0L580.5,184.8z M1733.4,182.5l-0.9-2.9l0,0
				c4.5-1.3,9-2.8,13.5-4.2c0.3-0.1,0.6-0.2,0.9-0.3l0.7-0.2l0.9,2.8l-0.3,0.1c-0.5,0.1-0.9,0.3-1.3,0.4
				C1742.4,179.7,1737.9,181.1,1733.4,182.5L1733.4,182.5z M549.2,179.6L549.2,179.6c-5.3-0.9-10.5-1.9-15.7-2.8h0l0.5-2.9l0,0l0,0
				c5.3,1,10.5,1.9,15.6,2.8l0.1,0L549.2,179.6z M517.9,173.9L517.9,173.9c-5.1-1-10.3-2-15.6-3.1l0,0l0.6-2.9l0,0
				c5.1,1,10.4,2.1,15.5,3l0.1,0L517.9,173.9z M1763.6,172.7l-0.9-2.8l0.1,0c5.1-1.7,10.2-3.4,15-5l0,0l0.9,2.8l-0.1,0
				C1773.6,169.4,1768.6,171.1,1763.6,172.7L1763.6,172.7z M486.8,167.7L486.8,167.7c-5.6-1.2-10.7-2.2-15.6-3.3l0,0l0.6-2.9l0.1,0
				c5.3,1.2,10.5,2.3,15.5,3.3l0.1,0L486.8,167.7z M1793.7,162.7l-1-2.8h0.1c5.1-1.7,10.1-3.4,15-5.1l0,0l1,2.8l0,0
				C1804,159.2,1798.9,160.9,1793.7,162.7L1793.7,162.7z M455.8,160.9L455.8,160.9c-5.1-1.2-10.3-2.4-15.5-3.6l0,0l0.8-2.9v0
				c5.1,1.2,10.2,2.4,15.4,3.6l0,0L455.8,160.9z M424.9,153.6L424.9,153.6c-5-1.2-10.2-2.5-15.4-3.9l0,0l0.8-2.9l0,0
				c5.2,1.3,10.4,2.6,15.4,3.9l0.1,0L424.9,153.6z M1823.7,152.4l-1-2.8l0,0c4.9-1.7,9.8-3.4,15-5.3l0,0l1,2.8l0,0
				C1834.1,148.7,1829.1,150.5,1823.7,152.4L1823.7,152.4z M394.2,145.7L394.2,145.7c-5.3-1.4-10.4-2.8-15.4-4.2l0,0l0.8-2.9l0,0
				c5.1,1.4,10.2,2.8,15.3,4.2l0,0L394.2,145.7z M1853.6,141.8l-1-2.8l0,0v-0.2l0.1,0.2c4.8-1.8,9.7-3.5,14.8-5.4l0,0l1,2.8l0,0
				C1863.9,138,1858.9,139.8,1853.6,141.8L1853.6,141.8z M363.6,137.1L363.6,137.1c-5.1-1.5-10.2-3-15.3-4.5l0,0l0.9-2.9l0,0.1
				c5,1.5,10.1,3,15.2,4.5l0,0L363.6,137.1z M1883.3,130.7l-1.1-2.8l0,0c5.1-2,10.1-3.9,14.8-5.7l0,0l1.1,2.8l0,0
				C1893.5,126.8,1888.5,128.8,1883.3,130.7L1883.3,130.7z M333.2,128L333.2,128c-5.1-1.6-10.2-3.2-15.2-4.8l-0.1,0l1-2.8l0,0
				c5.1,1.6,10.1,3.2,15.1,4.8l0,0L333.2,128z M303,118.3L303,118.3c-5.2-1.7-10.3-3.4-15.1-5.1l-0.1,0l1-2.8l0.1-0.1l0,0.1
				c5,1.7,10,3.4,14.9,5.1l0.1,0L303,118.3z M273,108L273,108c-5.2-1.8-10.2-3.6-15-5.4l0,0l1-2.8l0,0c4.9,1.8,9.9,3.6,14.9,5.4
				l0.1,0L273,108z M243.2,97.2L243.2,97.2c-4.9-1.8-9.9-3.8-14.9-5.7l0,0l1.1-2.8l0.1,0c4.8,1.9,9.8,3.8,14.8,5.6l0.1,0L243.2,97.2
				z M213.6,85.7L213.6,85.7c-5-2-9.9-4-14.8-5.9l0,0l1.1-2.8l0.1,0c4.9,2,9.9,4,14.7,5.9l0,0L213.6,85.7z M184.2,73.8L184.2,73.8
				c-4.6-1.9-9.4-3.9-14.7-6.2l0,0l1.2-2.8l0,0c4.9,2.1,9.8,4.1,14.6,6.1l0,0L184.2,73.8z M155,61.4L155,61.4
				c-4.3-1.8-8.8-3.8-14.6-6.3l-0.1,0l1.2-2.7l0,0c5.4,2.3,10.1,4.4,14.5,6.3l0,0L155,61.4z M125.9,48.7L125.9,48.7
				c-3.3-1.5-6.6-2.9-9.8-4.3l-4.8-2.1l1.3-2.9v0.2c2.2,1,4.4,1.9,6.6,2.9c2.6,1.1,5.2,2.3,7.9,3.5l0,0L125.9,48.7z M96.9,36
				L96.9,36c-5.7-2.5-10.3-4.5-14.6-6.3l0-0.1v0l1.2-2.7l0,0c4.5,1.9,9.2,3.9,14.6,6.3l0,0L96.9,36z M67.7,23.6L67.7,23.6
				c-5.4-2.2-10.2-4.1-14.8-5.8l0,0l1.1-2.8l0.1,0c4.5,1.7,9.4,3.6,14.8,5.8l0,0L67.7,23.6z M38.2,12.4L38.2,12.4
				C32.9,10.6,27.8,9,23.1,7.7l0,0l0,0v0l0.8-2.8l0,0c4.8,1.3,9.9,2.9,15.2,4.7l0.1,0L38.2,12.4z"/>
		</g>
		<g>
			<path class="st0" d="M1913.5,118.7l-1.2-2.8c4.9-2.1,7.2-3.1,7.3-3.2l1.3,2.7C1920.7,115.6,1918.5,116.6,1913.5,118.7z"/>
		</g>
	</g>
</g>
</svg>
