<?xml version="1.0" encoding="utf-8"?>
<!-- Generator: Adobe Illustrator 27.2.0, SVG Export Plug-In . SVG Version: 6.00 Build 0)  -->
<svg version="1.1" id="Capa_2_00000101091953439187290320000004294086171063949992_"
	 xmlns="http://www.w3.org/2000/svg" xmlns:xlink="http://www.w3.org/1999/xlink" x="0px" y="0px" viewBox="0 0 503 62"
	 style="enable-background:new 0 0 503 62;" xml:space="preserve">
<style type="text/css">
	.st0{fill:none;}
	.st1{fill:#3E3F3F;}
	.st2{fill:#F05B22;}
	.st3{fill:#F47E20;}
	.st4{fill:#037DFB;}
	.st5{fill:#231F20;}
	.st6{fill:#549E60;}
	.st7{fill:#F1F1F1;}
</style>
<g id="Capa_1-2">
	<g>
		<g>
			<path class="st0" d="M46.1,5.5C46,5.5,46,5.5,46.1,5.5C46,5.5,46,5.5,46.1,5.5c0,0.1,0,0.2,0,0.2c0,0.1,0.1,0.1,0.2,0.1
				c0.1,0,0.1,0,0.2,0c0,0,0.1,0,0.1,0c0,0,0,0,0,0C46.4,5.6,46.3,5.5,46.1,5.5z"/>
			<path class="st0" d="M47.2,4.9c-0.1,0-0.2,0-0.2-0.2c0,0,0,0,0,0c-0.1,0-0.2-0.1-0.3-0.2c-0.1-0.1-0.2-0.2-0.2-0.3
				c0-0.1-0.1-0.2-0.2-0.2c-0.2-0.1-0.3-0.2-0.5-0.3c-0.1-0.1-0.2-0.2-0.3-0.1c-0.1,0-0.1,0-0.2,0c0,0-0.1,0-0.1,0
				c-0.2,0-0.5,0-0.7,0.1c0,0-0.1,0-0.1,0.1c0,0.1-0.1,0.1-0.2,0.2c0,0,0.1,0,0.1,0c0.1,0,0.3,0,0.4-0.1c0.2-0.1,0.3-0.1,0.5,0
				c0,0,0,0,0,0.1c0,0,0,0.1-0.1,0c0,0,0,0-0.1,0c0.1,0.1,0.1,0.1,0.2,0.2c0.1,0,0.2,0,0.3,0.1c0.1,0.1,0.2,0.2,0.3,0.2
				c0.1,0,0.2,0.1,0.2,0.2c0,0.1,0,0.2-0.1,0.2c0.1,0,0.3,0,0.4,0.1c0,0,0.1,0,0.1,0.1c0,0.1,0,0.1-0.1,0.1c-0.1,0-0.1,0-0.1,0.1
				c0.3,0,0.5,0.1,0.7,0.1c0.1,0,0.2,0,0.3,0l0,0c0,0,0,0,0-0.1C47.3,5,47.3,4.9,47.2,4.9L47.2,4.9z"/>
			<path class="st0" d="M49,5.9C48.9,5.9,48.9,5.9,49,5.9c0-0.1,0-0.1-0.1-0.1c-0.1,0-0.1-0.1-0.2-0.2c-0.1-0.1-0.3-0.2-0.4-0.2
				c-0.1,0-0.1,0-0.1,0.1c0,0.1,0,0.2,0,0.2c-0.1,0.1-0.1,0.2-0.1,0.3c0,0.1,0,0.1,0,0.2c0,0,0.1-0.1,0.1-0.1c0.1-0.1,0.1-0.1,0.2,0
				c0,0,0.1,0,0.1,0c0.1-0.1,0.2,0,0.3,0c0.1,0,0.2,0,0.2,0.2c0-0.1,0-0.1,0-0.1l0,0c0.1-0.1,0-0.1,0-0.2C49,5.9,49,5.9,49,5.9
				L49,5.9z"/>
			<polygon class="st0" points="125,46.5 122.8,52.6 127.3,52.6 125.1,46.5 			"/>
			<polygon class="st0" points="69.9,46.5 67.6,52.6 72.2,52.6 70,46.5 			"/>
			<path class="st1" d="M105.2,49.5c-0.3-0.3-0.6-0.2-0.9,0C104.6,49.6,104.9,49.5,105.2,49.5z"/>
			<path class="st2" d="M23.5,15.5l5.3-14.1c0-0.1,0-0.3,0-0.3v0c0-0.3-0.2-0.5-0.6-0.5h-6c-0.4,0-0.7,0.2-0.8,0.6l-5.6,16
				c1.8-0.9,3.8-1.4,5.9-1.6C22.4,15.4,23,15.4,23.5,15.5L23.5,15.5z"/>
			<path class="st2" d="M13.5,18.5L7.4,1.1C7.3,0.7,7,0.6,6.6,0.6h-6C0.2,0.6,0,0.7,0,1c0,0.1,0,0.2,0,0.3c0,0,0.1,0.1,0.1,0.2
				l6.1,16.3c1.1,0.1,2.3,0.3,3.3,0.7C11,19.1,12.2,19.2,13.5,18.5L13.5,18.5z"/>
			<path class="st3" d="M20.7,16c-1.8,0.2-3.4,0.9-5,1.7L14.5,21h-0.1l-0.8-2.1c-0.7,1-1.5,1-2.6,0.7c-1.2-0.4-2.3-0.9-3.5-1.1
				c-0.4-0.1-0.8-0.1-1.1-0.1L10.8,30c0.1,0.4,0.4,0.6,0.8,0.6h5.8c0.4,0,0.7-0.2,0.8-0.6l5.3-14.1C22.5,15.7,21.6,15.9,20.7,16
				L20.7,16z"/>
			<path class="st3" d="M23.4,15.8l0.1-0.3c-0.6-0.1-1.2-0.1-1.8-0.1c-2.1,0.2-4.1,0.7-5.9,1.6l-0.2,0.6c1.6-0.8,3.2-1.5,5-1.7
				C21.6,15.9,22.5,15.7,23.4,15.8L23.4,15.8z"/>
			<path class="st3" d="M11.1,19.5c1,0.3,1.9,0.3,2.6-0.7l-0.1-0.4c-1.3,0.7-2.5,0.6-4,0.1c-1-0.4-2.2-0.6-3.3-0.7l0.2,0.5
				c0.4,0,0.8,0,1.1,0.1C8.8,18.6,9.9,19.2,11.1,19.5L11.1,19.5z"/>
			<path class="st2" d="M70.9,29.2c2.4,1.3,5.1,1.9,8.2,1.9c2.5,0,4.8-0.5,6.9-1.5c1.5-0.7,2.7-1.6,3.8-2.7c-1.5-1.7-3.4-3.1-5.6-4
				c0,0-0.1,0-0.1,0c-0.1,0-0.1,0.1-0.2,0.2c-1.4,1-3,1.5-4.8,1.5c-1.7,0-3.2-0.4-4.5-1.1c-1.3-0.7-2.3-1.8-3-3.2
				c-0.7-1.4-1.1-3-1.1-4.8s0.4-3.4,1.1-4.8c0.7-1.4,1.7-2.4,3-3.2c1-0.6,2.2-0.9,3.5-1.1C78,6,77.9,5.5,77.8,4.9
				c-0.3-1.6-0.7-3.2-1.2-4.8c-2.1,0.3-4.1,0.9-5.8,1.8c-2.4,1.3-4.2,3.1-5.5,5.5c-1.3,2.4-1.9,5.1-1.9,8.2s0.7,5.8,2,8.1
				C66.7,26,68.5,27.9,70.9,29.2L70.9,29.2z"/>
			<path class="st4" d="M90.1,26.7c0.4-0.4,0.7-0.8,1.1-1.3c1.4-1.8,2.3-3.8,2.7-6.2V19c0-0.2-0.1-0.3-0.2-0.4
				c-0.1-0.1-0.3-0.2-0.4-0.2h-5.8c-0.2,0-0.4,0.1-0.5,0.2c-0.1,0.1-0.2,0.3-0.3,0.4c-0.4,1.4-1.2,2.6-2.3,3.6
				C86.7,23.5,88.6,25,90.1,26.7L90.1,26.7z"/>
			<path class="st4" d="M79.1,6.5C81,6.5,82.6,7,84,8c1.4,1,2.3,2.3,2.8,4c0.1,0.2,0.1,0.3,0.3,0.4c0.1,0.1,0.3,0.2,0.5,0.2h5.8
				c0.2,0,0.3,0,0.4-0.1c0.1-0.1,0.2-0.2,0.2-0.4v-0.2c0-2.3-0.6-4.4-1.8-6.2c-1.2-1.8-3-3.2-5.2-4.2C84.6,0.5,82,0,79.1,0
				c-0.7,0-1.4,0-2.1,0.1c0.7,2.1,1.2,4.3,1.6,6.4C78.8,6.5,78.9,6.5,79.1,6.5L79.1,6.5z"/>
			<path class="st4" d="M89.9,26.9c0.1-0.1,0.2-0.2,0.3-0.2c-1.5-1.8-3.4-3.2-5.7-4.1c-0.1,0.1-0.2,0.2-0.3,0.3c0,0,0.1,0,0.1,0
				C86.5,23.9,88.3,25.2,89.9,26.9z"/>
			<path class="st4" d="M78.1,6.6c0.2,0,0.3,0,0.5,0c-0.4-2.2-0.9-4.3-1.6-6.4c-0.1,0-0.2,0-0.4,0c0.5,1.6,0.9,3.1,1.2,4.8
				C77.9,5.5,78,6,78.1,6.6z"/>
			<path class="st4" d="M119.7,6.9c0.5,0,0.7-0.2,0.7-0.7v-5c0-0.5-0.2-0.7-0.7-0.7h-20c-0.5,0-0.7,0.2-0.7,0.7v28.6
				c0,0.5,0.2,0.7,0.7,0.7h20.2c0.5,0,0.7-0.2,0.7-0.7v-5c0-0.5-0.2-0.7-0.7-0.7H106v-5.5h10.7c0.5,0,0.7-0.2,0.7-0.7v-4.8
				c0-0.5-0.2-0.7-0.7-0.7H106V6.9L119.7,6.9L119.7,6.9z"/>
			<path class="st4" d="M140.8,24.2c-0.8,0.6-2,0.9-3.6,0.9c-2.9,0-4.6-1.1-5.2-3.2c-0.1-0.4-0.4-0.6-0.8-0.6h-5.5
				c-0.5,0-0.7,0.2-0.7,0.6V22c0.3,2.9,1.5,5.2,3.6,6.7l0,0c2.1,1.6,4.9,2.4,8.6,2.4c3.6,0,6.6-0.8,8.7-2.5c2.1-1.7,3.1-4,3.1-7.1
				c0-4.9-2.7-7.7-8-8.6l-4.3-0.7c-1.7-0.3-2.9-0.6-3.6-1.1c-0.7-0.5-1-1.1-1-2c0-2.1,1.5-3.1,4.6-3.1s4.6,1,4.9,3.1
				c0.1,0.5,0.3,0.7,0.7,0.7h5.5c0.4,0,0.6-0.2,0.6-0.5V9.1c-0.3-2.9-1.4-5.2-3.4-6.8c-2-1.6-4.8-2.4-8.4-2.4s-6.6,0.8-8.6,2.5
				c-2,1.7-3,3.9-3,6.7c0,4.8,2.9,7.7,8.6,8.6l4.3,0.7c2.7,0.4,4,1.5,4,3.3C142,22.8,141.6,23.6,140.8,24.2L140.8,24.2z"/>
			<path class="st3" d="M13,58.4c1.2-0.5,2.1-1.3,2.9-2.3c0.8-1,1.3-2.1,1.5-3.4v-0.1c0-0.1,0-0.2-0.1-0.2c-0.1-0.1-0.1-0.1-0.2-0.1
				h-3.2c-0.1,0-0.2,0-0.3,0.1c-0.1,0.1-0.1,0.1-0.2,0.2c-0.3,0.9-0.8,1.7-1.5,2.2c-0.8,0.6-1.7,0.8-2.7,0.8c-0.9,0-1.8-0.2-2.5-0.6
				C6,54.6,5.4,54,5,53.2c-0.4-0.8-0.6-1.6-0.6-2.6c0-1,0.2-1.9,0.6-2.6c0.4-0.8,1-1.3,1.7-1.8c0.7-0.4,1.6-0.6,2.5-0.6
				c1,0,1.9,0.3,2.7,0.8c0.8,0.6,1.3,1.3,1.5,2.2c0,0.1,0.1,0.2,0.2,0.2c0.1,0.1,0.2,0.1,0.3,0.1H17c0.1,0,0.2,0,0.2-0.1
				c0.1-0.1,0.1-0.1,0.1-0.2v-0.1c0-1.3-0.3-2.4-1-3.4c-0.7-1-1.6-1.8-2.9-2.3h0c-1.2-0.5-2.7-0.8-4.3-0.8c-1.7,0-3.2,0.4-4.6,1.1
				c-1.3,0.7-2.3,1.7-3,3c-0.7,1.3-1.1,2.8-1.1,4.5c0,1.7,0.4,3.2,1.1,4.5c0.7,1.3,1.7,2.3,3.1,3c1.3,0.7,2.8,1.1,4.5,1.1
				C10.6,59.2,11.8,58.9,13,58.4z"/>
			<path class="st3" d="M31.5,58.5v-2.8c0-0.3-0.1-0.4-0.4-0.4H24V42.7c0-0.3-0.1-0.4-0.4-0.4h-3.1c-0.3,0-0.4,0.1-0.4,0.4v15.8
				c0,0.3,0.1,0.4,0.4,0.4h10.6C31.4,58.9,31.5,58.8,31.5,58.5L31.5,58.5z"/>
			<path class="st3" d="M34.2,42.3c-0.3,0-0.4,0.1-0.4,0.4v15.8c0,0.3,0.1,0.4,0.4,0.4h3.1c0.3,0,0.4-0.1,0.4-0.4V42.7
				c0-0.3-0.1-0.4-0.4-0.4H34.2z"/>
			<path class="st3" d="M59,42.3h-3.5c-0.2,0-0.4,0.1-0.5,0.3L50.3,51h-0.1l-4.7-8.4c-0.1-0.2-0.2-0.3-0.5-0.3h-3.5
				c-0.3,0-0.4,0.1-0.4,0.4v15.8c0,0.3,0.1,0.4,0.4,0.4h3.1c0.3,0,0.4-0.1,0.4-0.4v-9.9h0l3.7,6.4c0.1,0.2,0.2,0.3,0.5,0.3h2.3
				c0.2,0,0.4-0.1,0.5-0.3l3.7-6.4h0.1v9.9c0,0.3,0.1,0.4,0.4,0.4h3c0.3,0,0.4-0.1,0.4-0.4V42.7C59.4,42.5,59.3,42.3,59,42.3
				L59,42.3z"/>
			<path class="st3" d="M67.9,40.7h2.6c0.2,0,0.4-0.1,0.5-0.2l2.5-3.2c0.1-0.1,0.1-0.2,0.1-0.2c0,0,0-0.1,0-0.1
				c0-0.1-0.1-0.1-0.3-0.1h-3.2c-0.2,0-0.3,0.1-0.5,0.3l-2,3.2c0,0.1-0.1,0.2-0.1,0.2c0,0,0,0.1,0,0.1
				C67.7,40.7,67.8,40.7,67.9,40.7z"/>
			<path class="st3" d="M78.4,58.3l-6.2-15.7c-0.1-0.2-0.2-0.3-0.5-0.3h-3.6c-0.2,0-0.4,0.1-0.5,0.3l-6.2,15.8c0,0.1,0,0.1,0,0.2
				c0,0.2,0.1,0.2,0.4,0.2H65c0.2,0,0.4-0.1,0.5-0.3l0.9-2.6h7.1l0.9,2.6c0.1,0.2,0.2,0.3,0.4,0.3h3.2c0.2,0,0.3-0.1,0.3-0.3
				c0,0,0-0.1,0-0.2C78.4,58.4,78.4,58.4,78.4,58.3L78.4,58.3z M68,55.2c0.2-0.1,0.3-0.1,0.5,0C68.3,55.2,68.2,55.3,68,55.2z
				 M67.6,52.6l2.3-6.1H70l2.3,6.1H67.6z"/>
			<path class="st3" d="M90.2,45.5v-2.8c0-0.3-0.1-0.4-0.4-0.4H77.5c-0.3,0-0.4,0.1-0.4,0.4v2.8c0,0.3,0.1,0.4,0.4,0.4h4.3v12.6
				c0,0.3,0.1,0.4,0.4,0.4h3.1c0.3,0,0.4-0.1,0.4-0.4V45.9h4.3C90.1,45.9,90.2,45.8,90.2,45.5z"/>
			<path class="st3" d="M92.8,58.9h3.1c0.3,0,0.4-0.1,0.4-0.4V42.7c0-0.3-0.1-0.4-0.4-0.4h-3.1c-0.3,0-0.4,0.1-0.4,0.4v15.8
				C92.4,58.8,92.5,58.9,92.8,58.9z"/>
			<path class="st3" d="M114.4,56.1c0.8-1,1.3-2.1,1.5-3.4v-0.1c0-0.1,0-0.2-0.1-0.2c-0.1-0.1-0.1-0.1-0.2-0.1h-3.2
				c-0.1,0-0.2,0-0.3,0.1c-0.1,0.1-0.1,0.1-0.2,0.2c-0.3,0.9-0.8,1.7-1.5,2.2c-0.8,0.6-1.7,0.8-2.7,0.8c-0.9,0-1.8-0.2-2.5-0.6
				c-0.7-0.4-1.3-1-1.7-1.8c-0.4-0.8-0.6-1.6-0.6-2.6c0-1,0.2-1.9,0.6-2.6c0.4-0.8,1-1.3,1.7-1.8c0.7-0.4,1.6-0.6,2.5-0.6
				c1,0,1.9,0.3,2.7,0.8c0.8,0.6,1.3,1.3,1.5,2.2c0,0.1,0.1,0.2,0.2,0.2c0.1,0.1,0.2,0.1,0.3,0.1h3.2c0.1,0,0.2,0,0.2-0.1
				c0.1-0.1,0.1-0.1,0.1-0.2v-0.1c0-1.3-0.3-2.4-1-3.4c-0.7-1-1.6-1.8-2.9-2.3c-1.2-0.5-2.7-0.8-4.3-0.8c-1.7,0-3.2,0.4-4.6,1.1
				c-1.3,0.7-2.3,1.7-3,3c-0.7,1.3-1.1,2.8-1.1,4.5c0,1.7,0.4,3.2,1.1,4.5c0.7,1.3,1.7,2.3,3.1,3c1.3,0.7,2.8,1.1,4.5,1.1
				c1.4,0,2.7-0.3,3.8-0.8C112.7,57.8,113.6,57.1,114.4,56.1z"/>
			<path class="st3" d="M129.6,58.6c0.1,0.2,0.2,0.3,0.4,0.3h3.2c0.2,0,0.3-0.1,0.3-0.3c0,0,0-0.1,0-0.2c0,0,0-0.1,0-0.1l-6.2-15.7
				c-0.1-0.2-0.2-0.3-0.5-0.3h-3.6c-0.2,0-0.4,0.1-0.5,0.3l-6.2,15.8c0,0.1,0,0.1,0,0.2c0,0.2,0.1,0.2,0.4,0.2h3.2
				c0.2,0,0.4-0.1,0.5-0.3l0.9-2.6h7.1L129.6,58.6L129.6,58.6z M122.8,52.6L122.8,52.6L122.8,52.6l2.3-6.1h0.1l2.3,6.1H122.8z"/>
			<path class="st3" d="M143.5,49.2L143.5,49.2l-2.4-0.4c-0.9-0.1-1.6-0.3-2-0.6c-0.4-0.3-0.5-0.6-0.5-1.1c0-1.2,0.9-1.7,2.6-1.7
				s2.5,0.6,2.7,1.7c0,0.3,0.2,0.4,0.4,0.4h3.1c0.2,0,0.4-0.1,0.4-0.3v-0.1c-0.1-1.6-0.8-2.9-1.9-3.7c-1.1-0.9-2.7-1.3-4.7-1.3
				c-2,0-3.6,0.5-4.8,1.4c-1.1,0.9-1.7,2.2-1.7,3.7c0,2.6,1.6,4.2,4.8,4.8l2.4,0.4c1.5,0.2,2.2,0.8,2.2,1.8c0,0.6-0.2,1-0.7,1.3
				c-0.5,0.3-1.1,0.5-2,0.5c-1.6,0-2.6-0.6-2.8-1.8c-0.1-0.2-0.2-0.4-0.4-0.4h-3c-0.3,0-0.4,0.1-0.4,0.3v0.1c0.2,1.6,0.8,2.8,2,3.7
				c1.1,0.9,2.7,1.3,4.7,1.3s3.7-0.5,4.8-1.4c1.1-0.9,1.7-2.2,1.7-3.9C147.9,51.2,146.4,49.6,143.5,49.2L143.5,49.2z"/>
			<path class="st3" d="M41.2,30.7C41.2,30.6,41.2,30.6,41.2,30.7C41.2,30.7,41.2,30.7,41.2,30.7C41.2,30.7,41.2,30.7,41.2,30.7z"/>
			<path class="st3" d="M41.2,10.1c-3.1,0.6-5.1,2.7-6.8,5.2c-0.7,1-1.4,2.1-2.1,3.1c-0.7,1-1.3,1.1-2.5,0.5
				c-0.1-0.1-0.3-0.1-0.4-0.2c1.2,5.9,5.8,10.6,11.7,12c0-0.2,0.1-0.3,0.2-0.4c0,0,0,0,0.1,0c0.1,0.1,0.2,0,0.2,0
				c0.1-0.1,0-0.1,0.1-0.2c0,0,0,0,0,0c-0.1-0.1-0.2-0.1-0.3-0.2c0,0,0,0-0.1,0c0,0,0,0.1,0,0c0,0,0-0.1,0-0.1
				c0.2,0,0.2-0.2,0.3-0.2c0.1-0.1,0.1-0.2,0.2-0.2c0,0,0-0.1,0-0.1c0-0.1,0.1-0.2,0.1-0.3c0,0,0.1,0,0.1,0c0,0,0.1,0.1,0.1,0.1
				c0,0,0,0.1,0,0.1c0,0,0,0.1,0,0.1c0,0,0.1,0,0.1,0c0-0.1,0.2-0.2,0.2-0.4c0,0,0.1-0.1,0.1-0.1c0.1-0.1,0-0.1,0-0.1
				c0,0-0.1-0.1-0.2-0.1c-0.1,0,0,0.1,0,0.1c0,0.1-0.1,0.1-0.1,0.2c0,0-0.1,0-0.1,0c0,0,0-0.1,0-0.1c0.1-0.1,0.1-0.2,0.1-0.3
				c0-0.1,0-0.1,0.1-0.2c0.1,0,0.1-0.1,0.1-0.1c0-0.2,0.1-0.4,0.3-0.6c0.1-0.1,0.1-0.2,0.1-0.3c0-0.1,0-0.2,0-0.3s0-0.2,0-0.3
				c0-0.1,0-0.2,0.1-0.1c0,0,0.1,0,0.1,0c0-0.2,0.2-0.2,0.2-0.4c0.1-0.2,0.3-0.4,0.4-0.6c0.1-0.3,0.3-0.5,0.3-0.8c0-0.2,0-0.3,0-0.5
				c0-0.1,0-0.1,0.1-0.1c0.1-0.1,0.1-0.2,0.1-0.4c0,0,0-0.1,0-0.1c0.1-0.1,0.1-0.2,0.2-0.3c0,0,0.1-0.1,0.1-0.1c0,0,0,0,0,0
				c0-0.2,0.2-0.3,0.2-0.5c0-0.1,0-0.2,0.1-0.3c0,0,0-0.1,0-0.1c0-0.2,0.1-0.3,0.1-0.5c0-0.1,0-0.2,0.1-0.3c0-0.2,0.2-0.4,0.2-0.6
				c0-0.1,0-0.3,0.1-0.4c0.1-0.2,0-0.3,0-0.5c0,0,0-0.1,0-0.1c0.1-0.1,0-0.2,0-0.2c-0.1-0.1-0.2-0.2-0.2-0.3c0,0,0,0,0-0.1
				c-0.2-0.2-0.4-0.4-0.6-0.6c-0.3-0.2-0.5-0.5-0.6-0.8c0-0.1-0.1-0.2,0-0.3c0,0,0-0.1,0-0.2c0,0,0-0.1,0-0.2c0-0.1,0-0.1-0.1-0.2
				c0-0.1-0.1-0.1-0.1-0.2c0-0.1-0.1-0.2-0.1-0.3c-0.1-0.4-0.1-0.8-0.2-1.1c-0.1-0.2-0.1-0.4-0.2-0.6c-0.1-0.1-0.2-0.2-0.3-0.3
				c-0.1-0.1-0.1-0.1,0-0.1c0.1,0,0.1-0.1,0-0.2c-0.1-0.3,0-0.5,0.3-0.6c0.1,0,0.1-0.1,0.2-0.1c0.1,0,0.1-0.1,0-0.1c0-0.1,0,0-0.1,0
				c0,0,0,0,0,0c0,0,0-0.1,0-0.1c0-0.1-0.1-0.1,0-0.2c0,0,0-0.1,0-0.1c0-0.1,0-0.2,0.1-0.3c0,0,0,0,0,0c0.1-0.1,0.1-0.2,0.2-0.2
				c0,0,0.1-0.1,0.1-0.1c0-0.2,0.1-0.2,0.3-0.2c0.1,0,0.2-0.1,0.1-0.2c0-0.1,0-0.1,0.1-0.1c0.1,0,0.1,0,0.1-0.1
				c0-0.1,0.1-0.2,0.2-0.2c0.1,0,0.4-0.3,0.3-0.4c-0.2-0.1-0.4-0.3-0.7-0.4C43.4,10,42.4,9.9,41.2,10.1L41.2,10.1z"/>
			<path class="st2" d="M43,7.6c-0.1-0.2-0.2-0.4-0.4-0.7c-0.1-0.1-0.1-0.2-0.3-0.2c0,0,0,0-0.1,0c-0.2-0.1-0.4-0.2-0.5-0.4
				c0,0,0,0-0.1,0c-0.3,0-0.4-0.3-0.6-0.5c-0.1-0.2-0.2-0.3-0.3-0.4c-0.1-0.1-0.4-0.2-0.5-0.1c-0.2,0.1-0.4,0.1-0.5-0.1
				c0-0.1-0.2-0.1-0.2-0.1c-0.1-0.1-0.3-0.3-0.5-0.4c-0.2-0.1-0.3-0.2-0.5-0.4c0-0.1-0.1-0.1-0.1-0.2c0-0.1-0.1-0.1-0.2-0.1
				C38.2,3.8,38,3.8,38,3.6c0-0.1-0.1-0.2-0.2-0.3c-0.2-0.1-0.2-0.3-0.3-0.5c0,0,0,0,0,0c0.1,0,0.1-0.2,0.2-0.2c0.1,0,0-0.1,0-0.2
				c0-0.1-0.1-0.2,0-0.3c0-0.1,0-0.2-0.1-0.3c-5,2.6-8.4,7.8-8.4,13.8c0,0.9,0.1,1.7,0.2,2.6c0.1,0.1,0.2,0.1,0.4,0.2
				c1.1,0.6,1.9,0.5,2.6-0.6c0.9-1.3,1.7-2.7,2.7-3.9c0.7-0.9,1.4-1.7,2.3-2.3c3.2-2.1,5.4-2.3,7.8-1c0,0,0,0,0-0.1c0,0,0-0.1,0-0.1
				c0,0,0-0.1,0-0.1c0-0.1,0-0.1,0-0.2c0,0,0-0.1,0-0.1c-0.1-0.2-0.1-0.3-0.1-0.5c0,0,0,0,0-0.1c0.1-0.2-0.1-0.4-0.2-0.5
				c-0.1,0-0.2,0.1-0.3,0.1c0,0,0,0-0.1,0c-0.1,0-0.2,0.1-0.1,0.2c0.1,0.1,0,0.1-0.1,0.2c0,0,0,0,0,0c0,0,0,0,0,0
				c0-0.1-0.2-0.1-0.2-0.2c0-0.1-0.1-0.2-0.2-0.2c0,0,0,0,0,0c0,0-0.1-0.1-0.2-0.1c-0.1,0-0.2-0.1-0.2-0.2c0-0.1-0.1-0.2-0.1-0.3
				c0,0-0.1,0-0.1-0.1c0,0-0.1,0-0.1,0C43,8.2,43,8.1,42.9,8c0,0,0-0.1,0-0.2C43.1,7.8,43,7.7,43,7.6L43,7.6z"/>
			<path class="st2" d="M37.4,11.4c-0.9,0.6-1.6,1.4-2.3,2.3c-1,1.3-1.9,2.6-2.7,3.9c-0.7,1.1-1.5,1.3-2.6,0.6
				c-0.1-0.1-0.2-0.1-0.4-0.2c0,0.2,0.1,0.4,0.1,0.6c0.1,0.1,0.3,0.1,0.4,0.2c1.1,0.6,1.7,0.5,2.5-0.5c0.7-1,1.4-2,2.1-3.1
				c1.7-2.5,3.7-4.5,6.8-5.2c1.1-0.2,2.1-0.1,3.1,0.3c0.2,0.1,0.5,0.2,0.7,0.4c0,0,0,0,0,0c0,0,0-0.1,0-0.1c0.1-0.1,0.1-0.2,0.1-0.3
				C42.8,9.1,40.5,9.3,37.4,11.4L37.4,11.4z"/>
			<path class="st3" d="M55.6,20.7c0,0.3-0.2,0.5-0.3,0.8c0,0,0,0,0,0c-0.2,0.1-0.2,0.3-0.3,0.5c0,0.1-0.1,0.2-0.2,0.3
				c-0.1,0-0.1,0.1-0.1,0.1c0,0.1-0.1,0.1-0.1,0.1c-0.2,0.1-0.2,0.2-0.3,0.4c0,0.1-0.1,0.1-0.1,0.1c-0.1,0-0.2,0-0.2,0.2
				c0,0.1-0.1,0.1-0.1,0.1c-0.2,0-0.4-0.1-0.6-0.1c0,0-0.1,0-0.1,0c0,0-0.1,0-0.1,0c-0.1,0.1-0.2,0.1-0.2,0.1
				c-0.1,0.1-0.2,0-0.2,0.1c-0.1,0-0.3,0-0.4,0.2c-0.1,0.1-0.2,0.1-0.3,0.1c-0.1,0.1-0.2,0.2-0.3,0.2c0,0-0.1,0.1-0.1,0.1
				c-0.1,0.2-0.1,0.3-0.1,0.5c0,0.2-0.1,0.3-0.3,0.4c-0.2,0.1-0.4,0.3-0.6,0.6c-0.1,0.2-0.3,0.3-0.5,0.4c-0.2,0.1-0.3,0.2-0.4,0.4
				c0,0.1-0.2,0.2-0.3,0.2c0,0-0.1,0,0,0c0,0,0-0.1,0-0.1c0,0,0-0.1,0.1-0.1c0.1,0,0.1-0.1,0.1-0.1c-0.1-0.1-0.1-0.2-0.1-0.3
				c0,0,0,0,0,0c-0.1-0.2-0.3-0.3-0.4-0.5c0,0,0,0,0,0c-0.2-0.1-0.2-0.1-0.3-0.3c0,0,0-0.1,0-0.1c-0.1,0-0.3,0-0.4,0.1c0,0,0,0,0,0
				c0,0.1-0.1,0.3-0.2,0.4c0,0.1-0.1,0.2-0.1,0.3c0,0,0,0.1,0,0.1c0,0.1,0,0.1-0.1,0.2c0,0-0.1,0.1-0.1,0.1c0,0.1,0,0.2-0.1,0.3
				c-0.1,0.1,0.1,0.2,0.2,0.2c0.2,0.1,0.2,0.1,0.1,0.3c0,0.1,0,0.2,0,0.2c0.1,0.1,0.1,0.2,0,0.3c-0.1,0.1-0.2,0.1-0.2,0.2
				c-0.3,0.3-0.6,0.2-1,0.2c-0.2,0-0.3,0-0.5-0.1c-0.1,0-0.1,0.1-0.2,0.2c0,0,0,0.1-0.1,0.1c0,0-0.1,0.1,0,0.2c0,0.1,0,0.1-0.1,0.1
				c-0.2,0-0.4,0-0.6-0.1c0,0-0.1-0.1-0.2-0.1c0,0-0.1,0-0.1,0.1c0,0.1,0,0.2,0,0.3c0,0,0,0.1,0,0.1c0,0,0.1,0,0.1,0.1
				c0,0,0.1,0,0.1,0c0,0,0.1-0.1,0.1-0.1c0,0,0.1,0.1,0.1,0.1c0,0.1,0,0.1-0.1,0.1c-0.1,0-0.2,0-0.3,0.1c-0.1,0-0.2,0.1-0.3,0.1
				c0,0-0.1,0.1,0,0.1c0,0.1,0,0.2-0.1,0.3c-0.1,0.1-0.1,0.1-0.2,0.1c-0.2,0-0.4,0.1-0.5,0.3c-0.1,0.1,0,0.2,0,0.3
				c0,0,0.1,0.1,0.1,0.1c0,0.1,0.1,0.1,0.2,0.1c0.1,0,0.2,0,0.2,0.1c0,0.1,0,0.2-0.1,0.3c-0.1,0-0.2,0.1-0.2,0.1c0.2,0,0.5,0,0.7,0
				c5.9,0,11-3.3,13.7-8.1C57.4,22.3,56.5,21.5,55.6,20.7C55.6,20.7,55.6,20.7,55.6,20.7L55.6,20.7z"/>
			<path class="st2" d="M60.3,15.5C60.3,7,53.4,0,44.8,0c-1.7,0-3.3,0.3-4.8,0.7v0c0,0.2,0.1,0.3,0.2,0.4c0.1,0.1,0.3,0.1,0.3,0.2
				c0,0,0.1-0.1,0.1,0c0,0-0.1,0.1-0.1,0.1c-0.2,0.2-0.3,0.5-0.3,0.7c0,0.1-0.1,0.3-0.1,0.4c0,0,0,0,0,0c0.1,0.2,0,0.4,0.1,0.6
				c0,0.1,0.1,0.2,0.1,0.3c0,0.1,0,0.3,0.1,0.4c0,0.1,0,0.1,0.1,0.1c0.1,0,0.2,0.1,0.2,0.2c0,0.1,0.1,0.1,0.2,0.1c0.1,0,0.2,0,0.3,0
				c0.2,0,0.4,0,0.6,0c0.2-0.1,0.3-0.2,0.3-0.4c0.1-0.4,0.2-0.4,0.5-0.4c0.1,0,0.1,0,0.2,0c0.1,0,0.1,0,0.2,0c0.1,0,0.2,0.1,0.3,0.1
				c0.1,0,0.1,0,0.1,0.1c0,0,0.1,0.1,0,0.1c-0.1,0-0.1,0.1-0.2,0.2c-0.1,0.1-0.2,0.2-0.2,0.3c0,0.2-0.1,0.3-0.2,0.5
				c-0.1,0.2-0.2,0.3-0.3,0.5c0,0.1-0.1,0.2-0.2,0.2c0,0-0.1,0-0.1,0.1c0,0,0,0,0.1,0c0,0,0,0,0.1,0c0.1,0.1,0.1,0.1,0.2,0.1
				c0,0,0,0,0.1,0c0.2,0.1,0.3,0.1,0.5,0.1c0,0,0,0,0,0c0.1,0.1,0.2,0.1,0.3,0.1c0.2,0.1,0.2,0.2,0.4,0.3c0.1,0.1,0.1,0.3,0,0.4
				c-0.1,0.2-0.1,0.4-0.2,0.6c0,0,0,0,0,0.1c-0.1,0-0.1,0.1-0.1,0.2c0,0.1,0,0.1-0.1,0.2c0,0,0,0.1,0,0.1c0.1,0.2,0.1,0.4,0.2,0.6
				c0.1,0.1,0.2,0.2,0.2,0.4c0,0.1,0.1,0.1,0.2,0.1c0.2,0,0.3-0.1,0.5-0.1c0.1-0.1,0.2,0,0.3,0c0.1,0,0.2,0.1,0.2,0.2
				c0.1,0.1,0.2,0.2,0.2,0.3c0,0,0,0.1,0.1,0.1c0,0,0-0.1,0-0.1c0,0,0,0,0-0.1c0.1,0,0.2-0.1,0.2-0.2c0,0,0,0,0.1,0
				c0.2,0,0.2-0.1,0.2-0.3c0-0.1,0.1-0.1,0.1-0.2c0,0,0.1-0.1,0.2-0.1c0,0,0.1,0,0.1,0c0.1,0.1,0.1,0.1,0.1,0c0-0.1,0.1-0.1,0.1,0
				c0.1,0.1,0.2,0.1,0.3,0c0,0,0.1-0.1,0.1-0.1c0.1,0,0.1,0,0.2-0.1c0.1-0.1,0.1-0.1,0.2-0.1c0.1,0,0.1,0.1,0.1,0.1
				c0,0.1-0.1,0.1-0.2,0.1c-0.1,0-0.1,0.1-0.1,0.1s0.1,0.2,0.2,0.1c0.1,0,0.2,0,0.3,0c0.1,0,0.1,0,0.1-0.1c0,0,0-0.1,0-0.1
				c0-0.1,0.1-0.1,0.1-0.1c0.1,0,0,0,0,0.1c0,0.1,0,0.2,0.2,0.2c0.2,0,0.3,0.2,0.2,0.3c0,0.1,0.1,0.1,0.1,0.1c0.2,0,0.3,0,0.5,0
				c0,0,0.1,0,0.1,0.1c0.1,0.2,0.3,0.3,0.5,0.2c0.1,0,0.1,0,0.2-0.1c0,0,0.1,0,0.1,0c0.2,0,0.5,0.1,0.7,0.1c0.1,0,0.1,0,0.2,0
				c-0.1,0-0.1,0.1-0.1,0.2c0,0.1-0.1,0.1-0.1,0.1c0,0-0.1,0-0.1,0c0,0,0,0.1,0,0.1c0,0,0,0,0.1,0.1c0.1,0.1,0.1,0.2,0.1,0.3
				c0,0.1,0,0.2,0.1,0.1c0,0,0,0,0.1,0c0.1,0.1,0.3,0.3,0.4,0.4c0,0,0,0,0,0.1c0,0.2,0.2,0.4,0.3,0.6c0,0,0,0,0,0c0,0.1,0,0.1,0,0.2
				c-0.1,0.1,0,0.3-0.2,0.3c0,0,0,0-0.1,0c-0.1,0.1-0.1,0.4-0.1,0.5c0,0,0,0,0.1,0.1c0,0,0,0,0,0.1c0,0.2,0,0.4,0.1,0.5
				c0,0.1,0.1,0.1,0.2,0.1c0.1,0,0.1-0.1,0-0.1c0-0.1,0-0.1,0.1-0.1c0.1,0,0.1,0,0.2,0c0,0,0.1,0,0.1,0c0,0.1,0.1,0.1,0.1,0
				c0.1-0.1,0.1-0.1,0.2-0.2c0.1-0.1,0.1-0.3,0-0.4c0-0.1,0-0.2,0-0.3c0-0.1,0.1-0.1,0.1-0.1c0.1-0.1,0.1-0.1,0.2,0
				c0.1,0.1,0.2,0.2,0.3,0.3c0.1,0.1,0.2,0.2,0.2,0.3c0.1,0.1,0,0.2,0,0.3c0,0.2,0,0.3,0,0.4c0,0.1,0.1,0.1,0.1,0.2
				c0.1,0.1,0,0.1,0,0.2c0,0.1-0.1,0.1-0.1,0.2c0,0.1,0,0.1,0.1,0.2c0.1,0,0.1,0.1,0.1,0.2c0,0,0.1,0.1,0.1,0.1c0,0,0.1,0,0.1,0.1
				c0,0.1,0.1,0.1,0.2,0.1c0.1,0,0.2,0.1,0.3,0.1c0.1,0.1,0.2,0.2,0.3,0.2c0,0,0.1,0.1,0.1,0.1c0,0.1,0,0.1,0.1,0.1c0,0,0,0,0,0
				c0,0.1,0,0.2,0.1,0.3c0,0.1,0.1,0.2,0.2,0.1c0.1,0,0.2,0,0.3,0.1c0,0,0.1,0.1,0.1,0.1c0.1,0,0.2,0.1,0.2,0.1
				C55.9,16,56,16,56.2,16c0.1,0,0.2,0.1,0.3,0.2c0.1,0.1,0.2,0.2,0.3,0.3c0.1,0.1,0.1,0.2,0.2,0.3c0.1,0.1,0.1,0.2,0.2,0.3
				c0.1,0,0.2,0.1,0.3,0.1c0.1,0,0.2,0.1,0.2,0.2c0,0.1,0,0.3,0,0.4c0,0.4-0.1,0.7-0.4,1c-0.1,0.1-0.2,0.2-0.3,0.3c0,0,0,0-0.1,0
				c-0.1,0-0.2,0.1-0.3,0.2c-0.1,0.2-0.3,0.3-0.4,0.5c0,0,0,0,0,0c-0.2,0-0.2,0.2-0.3,0.4c0,0,0,0,0,0c0.9,0.8,1.9,1.6,2.9,2.3
				C59.7,20.5,60.3,18.1,60.3,15.5L60.3,15.5z M46.5,5.8C46.5,5.8,46.5,5.8,46.5,5.8L46.5,5.8C46.5,5.8,46.5,5.8,46.5,5.8
				c-0.1,0-0.1,0-0.2,0c-0.1,0-0.1,0-0.2-0.1c0,0,0-0.1-0.1-0.1c0,0,0,0,0-0.1c0,0,0,0,0.1,0C46.3,5.5,46.4,5.6,46.5,5.8
				C46.6,5.7,46.6,5.8,46.5,5.8C46.6,5.8,46.5,5.8,46.5,5.8z M47.4,5.1L47.4,5.1c-0.1,0-0.2,0-0.3,0C46.8,5,46.6,5,46.3,5
				c0,0,0.1-0.1,0.1-0.1c0.1,0,0.1-0.1,0.1-0.1c0-0.1-0.1-0.1-0.1-0.1c-0.1,0-0.2-0.1-0.4-0.1c0.1,0,0.1-0.1,0.1-0.2
				c0-0.1-0.1-0.2-0.2-0.2c-0.1,0-0.2-0.1-0.3-0.2c-0.1-0.1-0.2-0.1-0.3-0.1c-0.1,0-0.2-0.1-0.2-0.2c0,0,0.1,0,0.1,0c0,0,0,0,0.1,0
				c0,0,0-0.1,0-0.1c-0.2,0-0.3-0.1-0.5,0c-0.1,0.1-0.3,0.1-0.4,0.1c0,0,0,0-0.1,0c0.1,0,0.2-0.1,0.2-0.2c0,0,0.1,0,0.1-0.1
				c0.2-0.1,0.4-0.1,0.7-0.1c0,0,0.1,0,0.1,0c0.1,0,0.1,0.1,0.2,0c0.1,0,0.3,0,0.3,0.1c0.1,0.1,0.3,0.2,0.5,0.3
				c0.1,0,0.2,0.1,0.2,0.2c0,0.1,0.1,0.2,0.2,0.3c0.1,0.1,0.2,0.2,0.3,0.2c0,0,0,0,0,0c0,0.1,0.1,0.1,0.2,0.2
				C47.3,4.9,47.3,5,47.4,5.1C47.4,5.1,47.4,5.1,47.4,5.1L47.4,5.1z M49.1,6.2L49.1,6.2C49.1,6.2,49.1,6.2,49.1,6.2
				c-0.1-0.1-0.1-0.1-0.2-0.1c-0.1,0-0.2-0.1-0.3,0c0,0-0.1,0-0.1,0c-0.1-0.1-0.1-0.1-0.2,0c0,0-0.1,0.1-0.1,0.1c-0.1,0,0-0.1,0-0.2
				c0-0.1,0-0.2,0.1-0.3c0-0.1,0.1-0.1,0-0.2c0-0.1,0-0.1,0.1-0.1c0.2,0,0.3,0.1,0.4,0.2c0.1,0,0.1,0.1,0.2,0.2c0,0,0,0,0,0.1
				c0,0.1,0,0.1,0.1,0.1s0.1,0,0.1,0.1C49.1,6,49.2,6.1,49.1,6.2L49.1,6.2z"/>
			<polygon class="st2" points="46.5,5.8 46.5,5.8 46.5,5.8 			"/>
			<path class="st2" d="M55.7,20.3c-0.1,0.1-0.1,0.3-0.1,0.5c0.9,0.8,1.9,1.5,2.8,2.3c0.1-0.1,0.1-0.3,0.2-0.4
				C57.6,21.8,56.6,21.1,55.7,20.3L55.7,20.3z"/>
			<path class="st5" d="M68,55.2c0.2,0.1,0.3,0,0.5,0C68.3,55.1,68.2,55.1,68,55.2z"/>
		</g>
		<g>
			<rect x="167.8" y="0.2" class="st6" width="290.6" height="31.3"/>
			<rect x="175.9" y="30.7" class="st6" width="327.1" height="31.3"/>
			<g>
				<path class="st7" d="M181.5,10.8c0-0.3,0.1-0.4,0.4-0.4h3.6c0.3,0,0.5,0.1,0.5,0.4v15h8.4c0.3,0,0.4,0.1,0.4,0.4v3.3
					c0,0.3-0.1,0.4-0.4,0.4H182c-0.3,0-0.4-0.1-0.4-0.4L181.5,10.8L181.5,10.8z"/>
				<path class="st7" d="M197.7,10.8c0-0.3,0.1-0.4,0.4-0.4h3.6c0.3,0,0.5,0.1,0.5,0.4v18.7c0,0.3-0.2,0.4-0.5,0.4h-3.6
					c-0.3,0-0.4-0.1-0.4-0.4V10.8z"/>
				<path class="st7" d="M206.8,30c-0.3,0-0.4-0.1-0.4-0.4V10.8c0-0.3,0.1-0.4,0.4-0.4h6.6c2.9,0,5.3,0.9,7.2,2.7
					c1.9,1.8,2.8,4.2,2.8,7.1s-0.9,5.3-2.8,7.1c-1.9,1.8-4.3,2.7-7.2,2.7L206.8,30L206.8,30z M210.9,25.8h2.4c1.7,0,3-0.5,4-1.5
					c1-1,1.4-2.4,1.4-4.1s-0.5-3.1-1.4-4.1c-1-1-2.3-1.5-4-1.5h-2.4V25.8L210.9,25.8z"/>
				<path class="st7" d="M226.7,10.8c0-0.3,0.1-0.4,0.4-0.4h13.1c0.3,0,0.4,0.1,0.4,0.4v3.2c0,0.3-0.1,0.5-0.4,0.5h-9v3.6h7
					c0.3,0,0.4,0.2,0.4,0.5v3.1c0,0.3-0.1,0.5-0.4,0.5h-7v3.6h9.1c0.3,0,0.4,0.2,0.4,0.5v3.2c0,0.3-0.1,0.4-0.4,0.4h-13.2
					c-0.3,0-0.4-0.1-0.4-0.4L226.7,10.8L226.7,10.8z"/>
				<path class="st7" d="M244.1,10.8c0-0.3,0.1-0.4,0.4-0.4h7.7c2.4,0,4.3,0.6,5.7,1.8c1.4,1.2,2,2.8,2,5c0,1.3-0.3,2.5-0.8,3.5
					c-0.6,1-1.4,1.8-2.4,2.3c0.6,0.1,1.2,0.5,1.8,1.2c0.6,0.7,1,1.5,1.2,2.5l0.5,2.8v0.1c0,0.2-0.1,0.4-0.4,0.4h-4.1
					c-0.3,0-0.4-0.1-0.5-0.4c-0.4-2-1-3.5-1.8-4.3c-0.8-0.9-2-1.3-3.5-1.3h-1.1v5.6c0,0.3-0.2,0.4-0.5,0.4h-3.6
					c-0.3,0-0.4-0.1-0.4-0.4L244.1,10.8L244.1,10.8z M248.6,14.5v5.2h3.5c2.1,0,3.1-0.9,3.1-2.6c0-1.7-1-2.6-3.1-2.6H248.6z"/>
				<path class="st7" d="M261.9,29.7c0-0.1,0-0.2,0.1-0.3l7.3-18.7c0.1-0.2,0.3-0.4,0.5-0.4h4.2c0.3,0,0.5,0.1,0.6,0.4l7.3,18.6
					c0,0.1,0,0.1,0.1,0.1c0,0.1,0,0.2,0,0.2c0,0.2-0.1,0.3-0.4,0.3h-3.8c-0.3,0-0.4-0.1-0.5-0.4l-1.1-3.1h-8.4l-1.1,3.1
					c-0.1,0.2-0.3,0.4-0.5,0.4h-3.8C262.1,30,261.9,29.9,261.9,29.7L261.9,29.7z M271.9,15.3l-2.7,7.2h5.4L271.9,15.3L271.9,15.3
					L271.9,15.3z"/>
				<path class="st7" d="M283.9,27c0-0.2,0.1-0.4,0.2-0.6l8.8-11.9h-8.4c-0.3,0-0.4-0.2-0.4-0.5v-3.2c0-0.3,0.1-0.4,0.4-0.4h13.9
					c0.3,0,0.4,0.1,0.4,0.4v2.3c0,0.3,0,0.5-0.1,0.7c0,0,0,0.1-0.1,0.1c0,0,0,0-0.1,0.1l-8.8,11.8h8.6c0.3,0,0.4,0.2,0.4,0.5v3.2
					c0,0.3-0.1,0.4-0.4,0.4h-14.1c-0.3,0-0.5-0.1-0.5-0.4L283.9,27L283.9,27z"/>
				<path class="st7" d="M300.8,20.2c0-2.9,1-5.3,3-7.3c2-1.9,4.4-2.9,7.4-2.9c2.3,0,4.3,0.6,6,1.8c1.7,1.2,2.8,2.7,3.3,4.7
					c0,0.1,0,0.1,0,0.2c0,0.2-0.1,0.3-0.4,0.3h-4c-0.2,0-0.4-0.1-0.5-0.4c-0.3-0.7-0.9-1.3-1.6-1.7c-0.8-0.4-1.7-0.6-2.7-0.6
					c-1.7,0-3.1,0.5-4.1,1.6c-1,1.1-1.5,2.5-1.5,4.3c0,1.8,0.5,3.3,1.6,4.3c1.1,1.1,2.5,1.6,4.3,1.6c1.4,0,2.5-0.3,3.4-1
					s1.5-1.6,1.7-2.8h-4.8c-0.3,0-0.5-0.1-0.5-0.4v-2.6c0-0.3,0.2-0.5,0.5-0.5h8.8c0.3,0,0.5,0.2,0.5,0.5v1.4c0,2.9-0.9,5.2-2.8,7
					c-1.8,1.8-4.2,2.7-7,2.7c-3,0-5.5-1-7.4-2.9C301.8,25.5,300.8,23.1,300.8,20.2L300.8,20.2z"/>
				<path class="st7" d="M341,27.4c-2,2-4.4,2.9-7.3,2.9c-2.9,0-5.3-1-7.3-2.9c-2-2-3-4.4-3-7.2s1-5.3,3-7.2c2-2,4.4-2.9,7.3-2.9
					c2.9,0,5.3,1,7.3,2.9c2,2,3,4.4,3,7.2S343,25.5,341,27.4L341,27.4z M329.7,24.4c1,1.1,2.4,1.7,4.1,1.7s3-0.6,4.1-1.7
					c1-1.1,1.5-2.5,1.5-4.2s-0.5-3.1-1.5-4.2c-1-1.1-2.4-1.7-4.1-1.7s-3,0.6-4.1,1.7c-1,1.1-1.5,2.5-1.5,4.2S328.6,23.3,329.7,24.4z
					"/>
				<path class="st7" d="M346.5,24.3c0-0.2,0.1-0.4,0.4-0.4h3.6c0.3,0,0.4,0.1,0.5,0.4c0.3,1.4,1.5,2.1,3.4,2.1
					c1.1,0,1.8-0.2,2.4-0.6c0.5-0.4,0.8-0.9,0.8-1.6c0-1.2-0.9-1.9-2.6-2.2l-2.8-0.4c-3.8-0.6-5.7-2.5-5.7-5.6c0-1.8,0.7-3.3,2-4.4
					c1.3-1.1,3.2-1.6,5.6-1.6c2.4,0,4.2,0.5,5.5,1.5c1.3,1,2.1,2.5,2.2,4.4v0.1c0,0.2-0.1,0.3-0.4,0.3h-3.6c-0.3,0-0.4-0.1-0.5-0.4
					c-0.2-1.4-1.3-2-3.2-2c-2,0-3,0.7-3,2c0,0.5,0.2,1,0.6,1.3c0.4,0.3,1.2,0.6,2.3,0.7l2.8,0.4c3.5,0.6,5.3,2.4,5.3,5.6
					c0,2-0.7,3.5-2,4.6c-1.4,1.1-3.2,1.6-5.7,1.6c-2.4,0-4.3-0.5-5.6-1.5c-1.4-1-2.1-2.5-2.3-4.4L346.5,24.3L346.5,24.3z"/>
				<path class="st7" d="M372.3,30c-0.3,0-0.4-0.1-0.4-0.4V10.8c0-0.3,0.1-0.4,0.4-0.4h6.6c2.9,0,5.3,0.9,7.2,2.7
					c1.9,1.8,2.8,4.2,2.8,7.1s-0.9,5.3-2.8,7.1c-1.9,1.8-4.3,2.7-7.2,2.7L372.3,30L372.3,30z M376.4,25.8h2.4c1.7,0,3-0.5,4-1.5
					c1-1,1.4-2.4,1.4-4.1s-0.5-3.1-1.4-4.1c-1-1-2.3-1.5-4-1.5h-2.4V25.8L376.4,25.8z"/>
				<path class="st7" d="M392.2,10.8c0-0.3,0.1-0.4,0.4-0.4h13.1c0.3,0,0.4,0.1,0.4,0.4v3.2c0,0.3-0.1,0.5-0.4,0.5h-9v3.6h7
					c0.3,0,0.4,0.2,0.4,0.5v3.1c0,0.3-0.1,0.5-0.4,0.5h-7v3.6h9.1c0.3,0,0.4,0.2,0.4,0.5v3.2c0,0.3-0.1,0.4-0.4,0.4h-13.2
					c-0.3,0-0.4-0.1-0.4-0.4L392.2,10.8L392.2,10.8z"/>
				<path class="st7" d="M181.5,38.8c0-0.3,0.1-0.4,0.4-0.4h4.2c0.3,0,0.5,0.1,0.6,0.3c0,0,0,0,0,0l5.6,10h0.1l5.6-10
					c0.1-0.2,0.3-0.3,0.6-0.3h4.2c0.3,0,0.5,0.1,0.5,0.4v18.7c0,0.3-0.2,0.4-0.5,0.4h-3.6c-0.3,0-0.4-0.1-0.4-0.4V45.9h-0.1
					l-4.4,7.6c-0.1,0.2-0.3,0.3-0.5,0.3h-2.7c-0.3,0-0.4-0.1-0.5-0.3l-4.4-7.6h-0.1v11.7c0,0.3-0.1,0.4-0.4,0.4H182
					c-0.3,0-0.4-0.1-0.4-0.4C181.5,57.6,181.5,38.8,181.5,38.8z"/>
				<path class="st7" d="M207.1,38.8c0-0.3,0.1-0.4,0.4-0.4h3.6c0.3,0,0.5,0.1,0.5,0.4v10.9c0,1.5,0.3,2.6,0.9,3.2
					c0.6,0.7,1.5,1,2.8,1c1.2,0,2.2-0.3,2.8-1c0.6-0.7,0.9-1.8,0.9-3.2V38.8c0-0.3,0.1-0.4,0.4-0.4h3.6c0.3,0,0.5,0.1,0.5,0.4V50
					c0,2.7-0.7,4.7-2.2,6.1c-1.4,1.5-3.5,2.2-6.1,2.2c-2.6,0-4.7-0.7-6.1-2.2c-1.4-1.4-2.2-3.5-2.2-6.2L207.1,38.8L207.1,38.8z"/>
				<path class="st7" d="M226.7,51.2v-2.3c0-0.3,0.1-0.4,0.4-0.4h3.7c0.3,0,0.5,0.1,0.5,0.4v1.9c0,1.2,0.2,2,0.7,2.5
					c0.5,0.5,1.2,0.8,2.2,0.8c2,0,3-1.1,3-3.3v-8.2h-7.2c-0.3,0-0.4-0.1-0.4-0.4v-3.3c0-0.3,0.1-0.4,0.4-0.4h11.3
					c0.3,0,0.5,0.1,0.5,0.4v12.2c0,2.4-0.6,4.2-1.9,5.4c-1.3,1.3-3.2,1.9-5.6,1.9c-2.4,0-4.2-0.6-5.5-1.9
					C227.4,55.2,226.7,53.5,226.7,51.2L226.7,51.2z"/>
				<path class="st7" d="M245.6,38.8c0-0.3,0.1-0.4,0.4-0.4h13.1c0.3,0,0.4,0.1,0.4,0.4v3.2c0,0.3-0.1,0.5-0.4,0.5h-9v3.6h7
					c0.3,0,0.4,0.2,0.4,0.5v3.1c0,0.3-0.1,0.5-0.4,0.5h-7v3.6h9.1c0.3,0,0.4,0.2,0.4,0.5v3.2c0,0.3-0.1,0.4-0.4,0.4h-13.2
					c-0.3,0-0.4-0.1-0.4-0.4L245.6,38.8L245.6,38.8z"/>
				<path class="st7" d="M263,38.8c0-0.3,0.1-0.4,0.4-0.4h7.7c2.4,0,4.3,0.6,5.7,1.8c1.4,1.2,2,2.8,2,5c0,1.3-0.3,2.5-0.8,3.5
					s-1.4,1.8-2.4,2.3c0.6,0.1,1.2,0.5,1.8,1.2c0.6,0.7,1,1.5,1.2,2.5l0.5,2.8v0.1c0,0.2-0.1,0.4-0.4,0.4h-4.1
					c-0.3,0-0.4-0.1-0.5-0.4c-0.4-2-1-3.5-1.8-4.3c-0.8-0.9-2-1.3-3.5-1.3h-1.1v5.6c0,0.3-0.2,0.4-0.5,0.4h-3.6
					c-0.3,0-0.4-0.1-0.4-0.4L263,38.8L263,38.8z M267.5,42.6v5.2h3.5c2.1,0,3.1-0.9,3.1-2.6c0-1.7-1-2.6-3.1-2.6H267.5z"/>
				<path class="st7" d="M282.4,38.8c0-0.3,0.1-0.4,0.4-0.4H296c0.3,0,0.4,0.1,0.4,0.4v3.2c0,0.3-0.1,0.5-0.4,0.5h-9v3.6h7
					c0.3,0,0.4,0.2,0.4,0.5v3.1c0,0.3-0.1,0.5-0.4,0.5h-7v3.6h9.1c0.3,0,0.4,0.2,0.4,0.5v3.2c0,0.3-0.1,0.4-0.4,0.4h-13.2
					c-0.3,0-0.4-0.1-0.4-0.4L282.4,38.8L282.4,38.8z"/>
				<path class="st7" d="M298.9,52.3c0-0.2,0.1-0.4,0.4-0.4h3.6c0.3,0,0.4,0.1,0.5,0.4c0.3,1.4,1.5,2.1,3.4,2.1
					c1.1,0,1.8-0.2,2.4-0.6c0.5-0.4,0.8-0.9,0.8-1.6c0-1.2-0.9-1.9-2.6-2.2l-2.8-0.4c-3.8-0.6-5.7-2.5-5.7-5.6c0-1.8,0.7-3.3,2-4.4
					c1.3-1.1,3.2-1.6,5.6-1.6c2.4,0,4.2,0.5,5.5,1.5c1.3,1,2.1,2.5,2.2,4.4v0.1c0,0.2-0.1,0.3-0.4,0.3h-3.6c-0.3,0-0.4-0.1-0.5-0.4
					c-0.2-1.4-1.3-2-3.2-2c-2,0-3,0.7-3,2c0,0.5,0.2,1,0.6,1.3c0.4,0.3,1.2,0.6,2.3,0.7l2.8,0.4c3.5,0.6,5.3,2.4,5.3,5.6
					c0,2-0.7,3.5-2,4.6s-3.2,1.6-5.7,1.6c-2.4,0-4.3-0.5-5.6-1.5c-1.4-1-2.1-2.5-2.3-4.4L298.9,52.3L298.9,52.3z"/>
				<path class="st7" d="M324.3,38.8c0-0.3,0.1-0.4,0.4-0.4h13.1c0.3,0,0.4,0.1,0.4,0.4v3.2c0,0.3-0.1,0.5-0.4,0.5h-9v3.6h7
					c0.3,0,0.4,0.2,0.4,0.5v3.1c0,0.3-0.1,0.5-0.4,0.5h-7v3.6h9.1c0.3,0,0.4,0.2,0.4,0.5v3.2c0,0.3-0.1,0.4-0.4,0.4h-13.2
					c-0.3,0-0.4-0.1-0.4-0.4L324.3,38.8L324.3,38.8z"/>
				<path class="st7" d="M341.6,38.8c0-0.3,0.1-0.4,0.4-0.4h3.5c0.3,0,0.5,0.1,0.6,0.3l8.4,11.8h0.1V38.8c0-0.3,0.1-0.4,0.4-0.4h3.6
					c0.3,0,0.5,0.1,0.5,0.4v18.7c0,0.3-0.2,0.4-0.5,0.4h-3.5c-0.2,0-0.4-0.1-0.6-0.3L346.2,46h0v11.6c0,0.3-0.2,0.4-0.5,0.4h-3.6
					c-0.3,0-0.4-0.1-0.4-0.4L341.6,38.8L341.6,38.8z"/>
				<path class="st7" d="M367.9,57.7c0-0.1,0-0.2,0.1-0.3l7.3-18.7c0.1-0.2,0.3-0.4,0.5-0.4h4.2c0.3,0,0.5,0.1,0.6,0.4l7.3,18.6
					c0,0.1,0,0.1,0.1,0.1c0,0.1,0,0.2,0,0.2c0,0.2-0.1,0.3-0.4,0.3h-3.8c-0.3,0-0.4-0.1-0.5-0.4l-1.1-3.1h-8.4l-1.1,3.1
					c-0.1,0.2-0.3,0.4-0.5,0.4h-3.8C368,58,367.9,57.9,367.9,57.7L367.9,57.7z M377.9,43.3l-2.7,7.2h5.4L377.9,43.3L377.9,43.3
					L377.9,43.3z"/>
				<path class="st7" d="M404.1,39c1.5,0.6,2.6,1.6,3.4,2.7c0.8,1.2,1.2,2.5,1.2,4.1v0.1c0,0.1,0,0.2-0.1,0.3
					c-0.1,0.1-0.2,0.1-0.3,0.1h-3.8c-0.1,0-0.2,0-0.3-0.1c-0.1-0.1-0.1-0.2-0.2-0.3c-0.3-1.1-0.9-2-1.8-2.6c-0.9-0.7-2-1-3.2-1
					c-1.1,0-2.1,0.2-3,0.7c-0.9,0.5-1.5,1.2-2,2.1c-0.5,0.9-0.7,1.9-0.7,3.1c0,1.2,0.2,2.2,0.7,3.1c0.5,0.9,1.1,1.6,2,2.1
					c0.9,0.5,1.8,0.7,3,0.7c1.2,0,2.3-0.3,3.2-1s1.5-1.5,1.8-2.6c0-0.1,0.1-0.2,0.2-0.3c0.1-0.1,0.2-0.1,0.3-0.1h3.8
					c0.1,0,0.2,0,0.3,0.1c0.1,0.1,0.1,0.2,0.1,0.3v0.1c-0.3,1.5-0.9,2.9-1.8,4c-0.9,1.2-2,2.1-3.4,2.7c-1.4,0.6-2.9,1-4.5,1
					c-2,0-3.8-0.4-5.4-1.3s-2.8-2-3.6-3.6c-0.9-1.5-1.3-3.3-1.3-5.3c0-2,0.4-3.8,1.3-5.3c0.8-1.5,2-2.7,3.6-3.6
					c1.6-0.9,3.4-1.3,5.4-1.3C400.9,38,402.6,38.4,404.1,39L404.1,39z"/>
				<path class="st7" d="M426.7,39c1.5,0.6,2.6,1.6,3.4,2.7c0.8,1.2,1.2,2.5,1.2,4.1v0.1c0,0.1,0,0.2-0.1,0.3
					c-0.1,0.1-0.2,0.1-0.3,0.1h-3.8c-0.1,0-0.2,0-0.3-0.1c-0.1-0.1-0.1-0.2-0.2-0.3c-0.3-1.1-0.9-2-1.8-2.6c-0.9-0.7-2-1-3.2-1
					c-1.1,0-2.1,0.2-3,0.7c-0.9,0.5-1.5,1.2-2,2.1c-0.5,0.9-0.7,1.9-0.7,3.1c0,1.2,0.2,2.2,0.7,3.1c0.5,0.9,1.1,1.6,2,2.1
					c0.9,0.5,1.8,0.7,3,0.7c1.2,0,2.3-0.3,3.2-1s1.5-1.5,1.8-2.6c0-0.1,0.1-0.2,0.2-0.3c0.1-0.1,0.2-0.1,0.3-0.1h3.8
					c0.1,0,0.2,0,0.3,0.1c0.1,0.1,0.1,0.2,0.1,0.3v0.1c-0.3,1.5-0.9,2.9-1.8,4c-0.9,1.2-2,2.1-3.4,2.7c-1.4,0.6-2.9,1-4.5,1
					c-2,0-3.8-0.4-5.4-1.3s-2.8-2-3.6-3.6c-0.9-1.5-1.3-3.3-1.3-5.3c0-2,0.4-3.8,1.3-5.3c0.8-1.5,2-2.7,3.6-3.6
					c1.6-0.9,3.4-1.3,5.4-1.3C423.5,38,425.2,38.4,426.7,39L426.7,39z"/>
				<path class="st7" d="M434.6,38.8c0-0.3,0.1-0.4,0.4-0.4h3.6c0.3,0,0.5,0.1,0.5,0.4v18.7c0,0.3-0.2,0.4-0.5,0.4h-3.6
					c-0.3,0-0.4-0.1-0.4-0.4V38.8z"/>
				<path class="st7" d="M460,55.4c-2,2-4.4,2.9-7.3,2.9c-2.9,0-5.3-1-7.3-2.9c-2-2-3-4.4-3-7.2s1-5.3,3-7.2c2-2,4.4-2.9,7.3-2.9
					c2.9,0,5.3,1,7.3,2.9c2,2,3,4.4,3,7.2S462,53.5,460,55.4L460,55.4z M448.7,52.4c1,1.1,2.4,1.7,4.1,1.7s3-0.6,4.1-1.7
					c1-1.1,1.5-2.5,1.5-4.2s-0.5-3.1-1.5-4.2c-1-1.1-2.4-1.7-4.1-1.7s-3,0.6-4.1,1.7c-1,1.1-1.5,2.5-1.5,4.2S447.6,51.3,448.7,52.4z
					 M450,36.2c0-0.1,0-0.2,0.1-0.3l2.3-3.8c0.1-0.2,0.3-0.3,0.6-0.3h3.8c0.2,0,0.3,0,0.3,0.1c0,0.1,0.1,0.1,0.1,0.2
					c0,0.1,0,0.2-0.1,0.3l-3,3.8c-0.1,0.2-0.3,0.3-0.5,0.3h-3.1c-0.2,0-0.3,0-0.3-0.1C450,36.3,450,36.2,450,36.2L450,36.2z"/>
				<path class="st7" d="M466.3,38.8c0-0.3,0.1-0.4,0.4-0.4h3.5c0.3,0,0.5,0.1,0.6,0.3l8.4,11.8h0.1V38.8c0-0.3,0.1-0.4,0.4-0.4h3.6
					c0.3,0,0.5,0.1,0.5,0.4v18.7c0,0.3-0.2,0.4-0.5,0.4h-3.5c-0.2,0-0.4-0.1-0.6-0.3L470.8,46h0v11.6c0,0.3-0.2,0.4-0.5,0.4h-3.6
					c-0.3,0-0.4-0.1-0.4-0.4L466.3,38.8L466.3,38.8z"/>
			</g>
		</g>
	</g>
</g>
</svg>
