<?xml version="1.0" encoding="utf-8"?>
<!-- Generator: Adobe Illustrator 27.2.0, SVG Export Plug-In . SVG Version: 6.00 Build 0)  -->
<svg version="1.1" id="Capa_2_00000160892436942538855560000016334116967144290745_"
	 xmlns="http://www.w3.org/2000/svg" xmlns:xlink="http://www.w3.org/1999/xlink" x="0px" y="0px" viewBox="0 0 520 210"
	 style="enable-background:new 0 0 520 210;" xml:space="preserve">
<style type="text/css">
	.st0{fill:#547D2E;}
</style>
<g id="Capa_1-2">
	<g>
		<g>
			<path class="st0" d="M247.7,5.6c-0.1,0.3-0.2,0.4-0.3,0.5c-0.1,0.2,0,0,0-0.2c0.2-0.6,0.5-1.4,0.8-2.1c0.1,0.4,0.2,0.8,0.3,1.2
				c0.1,0.3,0.2,0.7,0.2,1c0.3,1.2,0.6,2.4,1,3.8c0.2,0.8,0.6,2.2,0.7,2.3c-0.4-1.9,0.4,0.9,1.7,5.8c0.7,2.5,1.4,4.9,2,7.1
				c0.8,2.7,1.5,5,2,6.8c2.1,0,3.9,0,4.3-0.1c0.6,0,0.9-0.1,0.7-0.1c-0.5-0.1,1-0.2,5.5-0.2c3.5,0,5.2-0.1,7.2-0.2
				c3.9-0.1,8.3-0.2,12-0.4c4.8-0.2,10.6-0.3,22.1-0.3c3,0,6.2,0,6.4-0.1c0.4-0.1,5.3-0.2,9.3-0.2c1.5,0,2.7,0,2.4-0.1
				c-0.4,0-4.5-0.1-2.1-0.1c1.8,0,5.3,0,7,0c3.1,0,7,0,10.1,0c2.6,0,6.9,0,7.7-0.1c3.5-0.2,14-0.1,21.2-0.2
				c9.7-0.1,20.7-0.1,31.7-0.1c3.4,0,7.1,0,10.7,0c0.8,0,1.9,0,2.2,0c0.2,0-0.6,0-1.2,0c-4.9,0-9.9-0.1-15.1-0.1c-3,0-6.1,0-9-0.1
				c-1.3,0-2.7,0-3.1-0.1c-0.6,0,1.2,0,2.7,0c6,0,12.2,0,18.3,0.1c4.1,0,7,0,7.8-0.1c0.5-0.1,3.1-0.1,5.8,0c3.1,0,6.2,0,7.8-0.1
				c-5.9-0.1-11.8-0.1-17.9-0.1c-0.6,0-2,0-2.1,0c-0.1,0,0.5,0,1.1,0c1.7,0,3.5,0,5.4,0c5.8,0,11.5,0,17.3,0
				c5.6-0.1,11.3-0.8,17.3-1.3c3.1-0.2,6.1-0.5,7.7-0.6c0.7-0.1,2.9-0.1,4-0.1c2.9,0,5.9,0.1,9.1,0.5c3.2,0.4,6.6,1.1,9.9,2.3
				c1.9,0.7,3.9,1.6,5.7,2.8c1.9,1.2,3.6,2.6,5.1,4.1c2.1,2.1,3.3,3.9,3.9,4.7c0.9,1.3,2.1,3,3.5,6.5c0.1,0.2,0.9,2,1,2.4
				c0.9,2,1.7,4.6,2.6,7.6c0.8,2.9,1.5,6.2,2.3,9.6c0.7,3,1.4,6,2,8.8c0.9,4,1.7,7.5,2.5,11.4c0.6,3,1.4,6.9,2.1,10.4
				c2.8,14.1,5.1,28.5,6.1,42.4c0.1,1.6,0.2,2.7,0.2,2.6c0-0.1,0-1.6-0.1-3.1c-0.2-4.1-0.6-8.3-1.1-12.3c-0.7-5.5-1.5-11-2.4-16.1
				c-0.7-4.2-1.4-7.3-1.7-9.6c0-0.3-0.5-2.8-0.8-4.2c-2-10.2-4.4-20.3-6.6-30.4c-0.3-1.5-0.7-3.2-1-4.4c-0.9-3.9-2-7.9-3.5-11.8
				c-1.5-3.9-3.3-7.8-5.9-11.4c-1.3-1.8-2.8-3.4-4.5-4.9c-1.7-1.5-3.5-2.7-5.5-3.8c-2-1.1-4-1.9-6.1-2.5c-2.1-0.6-4.2-1.1-6.4-1.4
				c-3.7-0.6-7.3-0.7-11-0.6c-7.3,0.1-14.5,1-21.5,1.5c-1.6,0.1-3.4,0.2-5,0.3c-0.8,0-1.6,0-2.4,0c-0.8,0-1.5,0-2.1,0
				c1.5,0,4.2,0,6.5-0.2c5.8-0.4,11.4-1.1,16.5-1.5c5.2-0.5,13.1-0.9,20.5,0.3c3,0.5,6,1.3,8.9,2.6c2.9,1.2,5.6,2.9,8,5
				c2.4,2.1,4.4,4.6,6.1,7.2c1.6,2.6,3,5.4,4,8.2c1.1,2.9,2.1,6,2.9,9c0.4,1.5,0.8,3.1,1.1,4.6c0.3,1.5,0.7,3,1,4.6
				c2.3,10.1,4.6,20.1,6.6,30.3c2.5,12.5,4.6,25.5,5.7,38.7c0.8,10,1,20-0.3,30.2c-0.7,5-1.7,10.1-3.5,15c-1.8,4.9-4.5,9.6-8.4,13.4
				c-1.7,1.7-3.7,3.1-5.8,4.3c-2.1,1.1-4.3,2-6.5,2.7c-4.4,1.3-9,1.8-13.4,2c-4.4,0.2-8.7,0.1-13,0.1l-12.9,0
				c-17.1-0.1-34.3-0.2-51.4-0.2c-39.9-0.3-79.9-0.7-119.9-1.2c-27.1-0.4-54.2-0.8-81.3-1.1l-9.2-0.1c-23.1-0.4-46-0.7-68.9-1.1
				c-13.2-0.2-26.5-0.4-39.9-0.6c-4.1-0.1-8.3-0.1-12.3-0.2c-6.3-0.1-12.7-0.2-19-0.3c-3.2,0-6.4-0.1-9.5-0.1
				c-3.2-0.1-6.4-0.1-9.6-0.2c-3.3-0.2-6.6-0.5-9.9-1.2c-3.3-0.7-6.6-1.9-9.6-3.6c-0.7-0.5-1.5-0.9-2.2-1.4
				c-0.7-0.5-1.4-1.1-2.1-1.7c-1.4-1.2-2.5-2.6-3.5-4.2c-2-3.1-3.2-6.4-3.9-9.8c-0.9-4-1.2-8.1-1.3-12.1c-0.1-4,0.1-7.9,0.3-11.8
				c0.2-3,0.4-6,0.5-9.1c0.2-3,0.2-5.9,0.1-9c0-6.1,0.1-12.2,0.2-18.3C1.4,105.5,1.7,93.3,2,81.1L2.3,71c0.1-3.4,0.1-6.8,0.5-10.3
				c0.4-3.5,1-7.1,2.4-10.5c1.4-3.4,3.4-6.4,5.8-9.1c0.4-0.4,0.8-0.8,1.1-1.2c1.7-1.8,3.7-3.3,5.7-4.7c1-0.7,2.1-1.3,3.1-1.9
				l3.2-1.6c4.3-2,8.9-3.5,13.5-4.6c9.3-2.1,18.7-2.4,28-2.3c7.2,0.1,14.3,0.4,21.4,0.5c10.7,0.1,21.4,0.2,32.2,0.3l29.2,0.3
				c4.9,0,9.7,0.1,14.6,0.2l14.6,0.3c10,0.2,19.3,0.4,28.4,0.7c1.9,0.1,4.1,0.1,5.6,0.2c6.8,0.3,12.6,0.5,16.7,0.7
				c4.1,0.2,6.5,0.4,6.6,0.6c0.1,0.2-0.7,0.4-6.9,0.5c-3.8,0-3.8,0.2-3.4,0.3c0.9,0.3-0.4,0.6-3.3,0.8c-0.7,0.1-1.9,0.1-3.1,0.2
				c-5.8,0.2-14.4,0.4-23.6,0.5c-3.2,0-8.1,0-14.1-0.1c-4.5-0.1-8.4-0.1-12.3-0.1c-4.6-0.1-9.6-0.1-14.8-0.2c-5.1,0-10.4,0-15.7-0.1
				c-2,0-4.5,0-5.5-0.1c-2.5-0.1-5.2-0.2-9.3-0.1c-2.4,0-5.6,0-8.6-0.1c-8-0.1-15.3-0.2-23.6-0.2c-12.1,0.1-25.1-0.9-36.8-0.4
				c-2,0-5.8,0.4-6.2,0.5c-0.4,0.1-1.2,0.2-2.4,0.4c-1.2,0.2-2.7,0.4-4.5,0.8c-1.9,0.3-3.7,0.8-5.6,1.3c-0.9,0.2-1.8,0.6-2.7,0.9
				c-0.9,0.3-1.8,0.6-2.7,1L27,35.7c-0.9,0.4-1.7,0.9-2.6,1.3c-1.7,0.8-3.3,1.8-4.8,2.9c-4.8,3.5-8.9,8.4-10.7,14.3
				c-1.1,3.5-1.5,7.3-1.6,11.2c-0.1,3.9-0.2,8-0.3,12l-0.6,24.1c-0.2,8-0.4,16.1-0.4,24.1c0,4,0,8,0,12c0,2,0,4.1-0.1,6.1
				c-0.1,2-0.2,4.1-0.3,6.1c-0.3,6.2-0.7,12.3-0.4,18.3c0.1,3,0.5,5.9,1.1,8.7c0.6,2.8,1.6,5.5,3,7.8c0.7,1.1,1.5,2.2,2.5,3.1
				c0.2,0.2,0.5,0.5,0.7,0.7c0.3,0.2,0.5,0.4,0.8,0.6c0.6,0.4,1.1,0.8,1.7,1.2c2.4,1.5,5,2.5,7.7,3.2c2.8,0.7,5.7,1.1,8.6,1.3
				c3,0.2,6,0.2,9,0.3l9.2,0.1c6.1,0.1,12.2,0.1,18.4,0.2c17.4,0.2,34.7,0.4,52.1,0.7c36.3,0.5,72.6,1,109,1.4
				c33.3,0.4,66.6,0.8,99.9,1.2c31.2,0.3,62.3,0.6,93.5,0.7c18.2,0.1,36.4,0.2,54.5,0.1c4.5-0.1,8.8-0.4,12.9-1.4
				c2-0.5,4-1.2,5.9-2.1c1.8-0.9,3.5-2,5-3.4c3-2.7,5.3-6.3,7-10.2c1.7-3.9,2.8-8.2,3.5-12.6c1.2-7.2,1.4-14.6,1.2-21.9
				c-0.2-7.4-0.9-14.8-1.8-22.1c-1-7.7-2.2-15.4-3.7-22.8c-1.5-7.6-3.1-15.1-4.7-22.5c-1.2-5.5-2.4-11.1-3.7-16.6
				c-1.2-5.4-2.8-10.7-5.1-15.4c-2-4.1-4.6-7.4-7.7-10c-3.2-2.5-6.9-4.2-10.8-5.1c-4.6-1.1-9-1.4-13.9-1.3
				c-4.3,0.1-8.8,0.4-13.4,0.9c-4.5,0.4-9.1,0.9-13.8,1l-1.8,0l-1.7,0l-3.4,0l-6.9,0c-2.5,0-5.3,0-7.6,0c-10.5,0-20.2-0.1-30-0.2
				c-4.4,0-9-0.1-13.6-0.1c-10.9,0-21.5-0.1-31.6-0.2c-2.8,0-5.7,0-8.9-0.1c-5.4,0-11,0-15.8-0.1c-2.5-0.1-6-0.1-8.9-0.1
				c-5.1,0-10.1,0-15.2-0.1l-32.5-0.3l-7.5-27.5c0-0.1-0.1-0.3-0.1-0.4C248,4.8,247.8,5.2,247.7,5.6L247.7,5.6z M121.5,30
				c-0.3,0,0.2,0,0.8,0.1c0.6,0,1.8,0,2.8,0c3.5,0,7,0.1,9.9,0c0.5,0,0.8,0,0.5,0C132.5,30.1,124,30,121.5,30L121.5,30z
				 M315.6,203.3c0.3,0-0.8,0-1.9,0c-0.8,0-1.5,0-2.2,0c0.1,0,0.8,0,2,0C314.2,203.3,315.3,203.3,315.6,203.3z M495,42.5
				c0,0.1,0.5,0.9,0.8,1.4c1.8,3.2,3.2,6.6,4.3,10v0c1.3,3.9,2.3,8.1,3.1,12c0.5,2.4,1.1,4.6,1.6,6.8c0.1,0.6,0.2,0.9,0.2,0.7
				c0-0.2-0.3-1.6-0.5-2.2c-0.9-3.6-1.6-7.3-2.5-11.1c-0.9-3.8-2.1-7.5-3.6-11.1c-0.8-1.9-1.7-3.7-2.7-5.4
				C495.3,43,495,42.5,495,42.5L495,42.5z M447.2,28.4c4-0.3,8.6-0.7,14.8-0.8c5.6,0,9.3,0.5,8,0.3c-2.1-0.4-6.1-0.5-9.5-0.5
				c-0.5,0-1,0-4,0.1c-1.1,0-4.6,0.3-8,0.6C446.7,28.3,445.9,28.5,447.2,28.4L447.2,28.4z"/>
			<path class="st0" d="M237.5,29c0.5-1.2,0.9-2.2,1.3-3.1c0,0,0-0.1-0.1,0.1c-0.1,0.2-0.4,0.9-0.5,1.1c-0.5,1.2-1,2.4-1.4,3.5
				c0,0.1-0.1,0.2-0.1,0.3l-0.5,1.2l-1.4,0c-0.2,0-0.2,0-0.2,0c0.1,0,0.1,0,0.2,0l1.4,0l0.6-1.3C237,30.2,237.3,29.4,237.5,29z"/>
		</g>
		<g>
			<g>
				<path class="st0" d="M9.1,125.3C9.1,125.4,9.1,125.4,9.1,125.3C9,125.3,9,125.1,9,125c0-0.1,0-0.1,0-0.2c0,0,0-0.1,0-0.1
					c-0.1,0.1-0.1,0-0.1-0.2c0-0.3-0.1-0.5-0.2-0.5c-0.1,0-0.1,0-0.1-0.2c0-0.1-0.1-0.2-0.1-0.2l-0.2-0.4c-0.1-0.1-0.2-0.3-0.2-0.7
					c0-0.1,0-0.2-0.1-0.2c-0.1,0-0.1-0.2-0.1-0.3c0,0,0-0.1,0-0.1c0,0,0,0.1-0.1,0.1c0-0.1,0-0.2,0-0.2c0-0.1,0-0.2,0-0.3
					c0-0.1,0-0.2,0-0.2c-0.1-0.1-0.1-0.4-0.1-0.6c-0.1-0.3-0.1-0.6-0.1-1c0-0.1,0-0.2,0-0.3c0,0,0-0.1,0-0.1c0,0,0,0,0,0
					c0,0.2,0,0.3,0,0.5c0,0.1,0,0.2,0,0.3c0,0,0,0.1,0,0.1c0,0,0,0,0-0.1c0-0.2,0-0.4,0-0.6c0-0.1,0-0.2,0-0.2c0,0,0-0.1,0-0.2
					c0-0.1,0-0.2,0-0.2c0,0.2,0,0.4,0,0.5c0,0,0,0.1,0,0.1c0,0,0,0,0,0c0-0.1,0-0.1,0-0.2c0-0.4,0-0.7,0-1.1c0-0.1,0-0.2,0-0.2
					c0,0,0-0.1,0-0.1c0.1-0.2,0.1-0.4,0-0.6c0-0.1,0-0.2,0-0.4c0-0.1,0-0.1,0-0.2c0,0-0.1-0.1,0-0.2c0,0,0-0.1,0-0.1
					c-0.1-0.1-0.1-0.3-0.1-0.5c0-0.1,0-0.2,0-0.3c0-0.1,0-0.2,0-0.4c0-0.1,0-0.2,0-0.3c0-0.4,0-0.9-0.1-1.3c0,0,0-0.1,0-0.1
					c0,0,0,0,0,0.1c0,0.1,0,0.2,0,0.4c0,0.2,0,0.3,0,0.5c0,0.1,0,0.2,0,0.3c0,0,0,0.1,0,0.1v0.9c0,0,0,0.1,0,0.1
					c0.1,0.5,0.1,1,0,1.5c0,0.1,0,0.2,0,0.3l0,0.7c0,0.1,0,0.2,0,0.3c0,0,0-0.1,0-0.2c0-0.2,0-0.4-0.1-0.5c0-0.2-0.1-0.4-0.1-0.6
					c0-0.4,0-0.7,0-1.1c0-0.2,0-0.4,0-0.6c0-0.3,0-0.6,0-0.9c0-0.4,0-0.8,0-1.2l0-1.8c0-1,0-2.1,0.1-3.1l0.1-3.7l0.1-2.5l0-0.3
					c0-0.7,0.1-1.4,0.1-2.1c0-0.4,0-0.8,0-1.2c0-0.1,0-0.3,0-0.4c0.1-0.8,0.1-1.5,0.1-2.3c0-0.2,0-0.5,0-0.7
					c0.1-0.7,0.1-1.5,0.1-2.2c0-0.4,0-0.8,0.1-1.2l0,0c0-0.6,0-1.1,0-1.7c0-0.2,0-0.4,0-0.7l0-1l0-1.8c0-0.3,0-0.6,0.1-0.9
					c0-0.1,0-0.1,0-0.2c0.1-0.4,0.3-0.7,0.4-0.7c0.1,0,0.2,0,0.3,0.2c0.1,0.1,0.1,0.1,0.2,0.1c0.2,0,0.3,0,0.4,0.1
					c0,0,0.1,0.1,0.1,0.1c0.2,0.2,0.3,0.4,0.5,0.7c0.1,0.1,0.1,0.2,0.1,0.4c0,0.1,0,0.3,0,0.4c0,0.3,0.1,0.6,0.1,0.9
					c0,0.1,0,0.1,0,0.2c0,0.1-0.1,0.2,0,0.3c0,0.1,0,0.2,0,0.3c0,0.2,0,0.5,0,0.7c0,0.4,0,0.8,0,1.1c0,0.1,0,0.2,0,0.2
					c0.1,0,0.1,0.1,0,0.2c0,0.2,0,0.5,0,0.7c0,0.2,0,0.4,0,0.6c0,1,0,1.9,0,2.9l0,0.6l0,0.3c0,0.8,0,1.5,0,2.2l0,1.6l0,3.3l-0.1,3
					l-0.1,2.9l-0.1,3.3c0,0.5,0,0.9,0,1.4c0,0.2,0,0.5,0,0.7c0,0.2,0,0.5,0,0.7c0,0.3,0,0.7,0,1c0,0.3,0,0.6,0,0.8
					c0,0.2,0,0.3,0,0.4c0,0.1,0,0.3,0,0.4l-0.1,0.8c0,0.1,0,0.2,0,0.2c0,0.3,0,0.6-0.1,0.9c0,0.1,0,0.3,0,0.4c0,0.3,0,0.7-0.1,1
					c0,0.1,0,0.2,0,0.3c0,0.2,0,0.3,0,0.5c0,0.1,0,0.2,0,0.3c0,0.2,0,0.3,0,0.5l-0.1,1.9L9.1,125.3L9.1,125.3z M9.9,88.9
					C9.9,88.9,9.9,88.9,9.9,88.9c0,0,0-0.1,0-0.1c0-0.1,0-0.2,0-0.3c0,0,0,0,0,0C9.8,88.6,9.8,88.8,9.9,88.9L9.9,88.9z M7.4,106.2
					C7.4,106.2,7.4,106.2,7.4,106.2v-0.1C7.4,106.1,7.4,106.1,7.4,106.2C7.4,106.2,7.4,106.2,7.4,106.2z M7.5,116.7
					C7.5,116.7,7.5,116.7,7.5,116.7l0-0.4l0,0V116c0-0.1,0-0.1,0-0.2c0,0,0,0,0,0c0,0,0,0.1,0,0.1c0,0.2,0,0.5,0,0.7
					C7.5,116.6,7.5,116.6,7.5,116.7C7.5,116.7,7.5,116.7,7.5,116.7L7.5,116.7z M7.5,118.3c0-0.1,0.1-0.3,0.1-0.4
					c0-0.2,0-0.3-0.1-0.2c0,0.1,0,0.2,0,0.3c0,0,0,0,0,0.1C7.4,118,7.5,118.2,7.5,118.3C7.5,118.3,7.5,118.3,7.5,118.3L7.5,118.3z"
					/>
				<path class="st0" d="M9,126.1c0,0,0-0.1,0-0.1C9,126,9,126,9,126.1C9,126,9,126.1,9,126.1L9,126.1C9,126.2,9,126.2,9,126.1
					C9,126.2,9,126.1,9,126.1L9,126.1z"/>
			</g>
			<g>
				<path class="st0" d="M85.6,35.1c-0.7,0-1-0.1-0.5-0.1c0.9,0,2,0,3.3,0.1c0.7,0,1.4,0.1,2.3,0.1c0.2,0,0.7,0,0.7,0
					c-0.5-0.1,0.3-0.1,1.8,0c2.7,0.1,5,0,4.8-0.1c-0.1-0.1,0.3-0.1,1.6-0.1c1,0,1.5,0,2.1-0.1c1.1-0.1,2.4-0.1,3.5-0.2
					c1.4-0.1,3.1-0.1,6.4-0.1c0.9,0,1.8,0,1.9,0c0.1-0.1,1.6-0.1,2.7-0.1c0.4,0,0.8,0,0.7,0c-0.1,0-1.3,0-0.6-0.1c0.5,0,1.5,0,2,0
					c0.9,0,2,0,2.9,0c0.8,0,2,0,2.2,0c1-0.1,4.1-0.1,6.2-0.1c2.8,0,6,0,9.2,0c1,0,2.1,0,3.1,0c0.2,0,0.6,0,0.6,0c0.1,0-0.2,0-0.3,0
					c-1.4,0-2.9,0-4.4-0.1c-0.9,0-1.8,0-2.6,0c-0.4,0-0.8,0-0.9,0c-0.2,0,0.3,0,0.8,0c1.7,0,3.5,0,5.3,0c1.2,0,2,0,2.3,0
					c0.1,0,0.9,0,1.7,0c0.9,0,1.8,0,2.3,0c-1.7,0-3.4-0.1-5.2-0.1c-0.2,0-0.6,0-0.6,0c0,0,0.1,0,0.3,0c0.5,0,1,0,1.6,0
					c3.4,0,6.6,0,10.1,0c0.9,0,1.8,0,2.2,0c0.2,0,0.8,0,1.2,0c1.6,0.1,3.5,0.1,5.4,0.1c1.1,0,2.4,0,3.5,0.1c0.8,0,1.4,0,1.7,0
					c0.4,0,1,0,2.1,0c0.1,0,0.6,0,0.7,0c1.2,0,3,0,5,0c0.9,0,1.8,0,2.6,0c1.2,0,2.2,0,3.3,0.1c0.9,0,2,0.1,3,0.1
					c4.1,0.1,8.3,0.1,12.2,0.2c0.4,0,0.8,0,0.7,0c0,0-0.5,0-0.9,0c-1.2,0-2.4-0.1-3.5-0.1c-1.6,0-3.2,0-4.6,0c-1.2,0-2.1,0-2.8-0.1
					c-0.1,0-0.8,0-1.2,0c-3-0.1-5.9-0.1-8.9-0.2c-0.4,0-0.9,0-1.3,0c-4.6,0-9.3-0.1-14.2-0.3c-1,0-2.1,0-3.1,0c-2.1,0-4.2,0-6.2-0.1
					c-1,0-2.1,0-2.8-0.1c0.4,0,1.3,0,1.9,0c1.7,0,3.4,0,4.8,0c1.5,0,3.7,0,5.8,0c3.4,0,6.7,0.1,10,0.1c1.7,0,3.5,0.1,5.3,0.1
					c3,0.1,5.9,0.1,8.9,0.2c3.6,0.1,7.4,0.1,11.1,0.2c5.7,0.1,11.3,0.2,17,0.3c8.9,0.2,17.8,0.4,26.8,0.6h0l0,0l0,0l0.1-0.1l0.4-1
					c4.8-11.3,9.7-22.6,14.5-33.9l1.2,4.4c2.3,8.2,4.5,16.5,6.8,24.7l0.7,2.6c0.3,1.1,0.6,2.3,0.9,3.4c4.9,0,9.7,0.1,14.6,0.1
					c3.8,0,7.7,0.1,11.6,0.1c1.2,0,2.4,0,3.6,0c7.4,0.1,14.8,0.1,22.2,0.2c2.2,0,4.5,0,6.7,0.1c6.9,0.1,13.9,0.1,20.9,0.2
					c3.9,0,7.8,0.1,11.6,0.1c0.1,0,0.3,0,0.4,0c5.3,0,10.7,0.1,16,0.1c2.1,0,4.1,0,6.2,0c3.1,0,6.2,0,9.3,0.1l16.9,0.1
					c2.9,0,5.6,0.1,8.2,0.1c0.5,0,1.2,0,1.6,0c4,0.1,6.7,0.3,6.8,0.5c0,0.1-0.2,0.2-2,0.3c-1.1,0.1-1.1,0.1-1,0.2
					c0.3,0.2-0.1,0.3-1,0.5c-0.2,0-0.5,0.1-0.9,0.1c-1.7,0.2-4.2,0.3-6.8,0.5c-0.9,0.1-2.3,0.1-4.1,0.1c-1.3,0-2.4,0-3.6,0
					c-2.7,0-5.8,0-8.9,0c-0.6,0-1.3,0-1.6,0c-0.7,0-1.5-0.1-2.7,0c-0.7,0-1.6,0-2.5,0c-2.3,0-4.4,0-6.9,0c-3.5,0-7.3,0-10.7-0.1
					c-0.6,0-1.7,0-1.8,0c-0.2,0.1-1,0.1-2.1,0c-2.3-0.1-4.6-0.1-6.9,0c-1.9,0-3.8,0-5.7,0c-9.2,0-18.5-0.1-27.7-0.1
					c-1.8,0-3.6,0-5.3,0c-0.9,0-1.8,0-2.7,0c-7.2,0-14.2-0.1-21.4-0.1c-5,0-10.1,0-15.1-0.1c-5.8,0-11.7,0-17.5-0.1
					c-1.5-5.3-2.9-10.6-4.4-15.9l-3.8-13.6l-2.9,6.7c-3.2,7.6-6.5,15.2-9.7,22.7c-1.5,0-3.1-0.1-4.6-0.1
					c-10.6-0.2-21.1-0.4-31.7-0.7c-4.3-0.1-8.6-0.2-12.9-0.3c-2.2,0-4.5-0.1-6.7-0.1c-2.2,0-4.4-0.1-6.6-0.1
					c-3.2-0.1-6.5-0.2-9.7-0.2c-2.8,0-5.4-0.1-7.9-0.2c-1.5-0.1-2.8-0.1-4.3-0.1c-1.3,0-2.6,0-3.9,0c-2.7,0-5.3-0.1-8-0.1
					c-0.7,0-1.6,0-2.2,0c-3.1,0-5.9,0-8.7-0.1c-1.3,0-2.6,0-4,0c-3.2,0-6.2,0-9.2-0.1c-0.8,0-1.7,0-2.6,0c-1.6,0-3.2,0-4.6-0.1
					c-0.7,0-1.8,0-2.6,0c-1.5,0-2.9,0-4.4,0c-6-0.1-12-0.1-18-0.3C87,35.2,86.3,35.1,85.6,35.1L85.6,35.1z M387,38.2
					c-0.1,0,0.1,0,0.2,0c0.2,0,0.5,0,0.8,0c1,0,2,0,2.9,0c0.1,0,0.2,0,0.1,0C390.2,38.2,387.7,38.2,387,38.2L387,38.2z M249.3,10.6
					c0,0.1,0.1-0.2,0.2-0.5c0.1-0.2,0.2-0.4,0.2-0.6c0,0-0.1,0.2-0.2,0.5C249.4,10.3,249.3,10.6,249.3,10.6L249.3,10.6z M166.8,34.2
					c0,0,0.3,0,0.4,0l3.1,0.1h0c1.2,0,2.4,0,3.5,0.1c0.7,0,1.4,0,2,0c0.2,0,0.3,0,0.2,0c-0.1,0-0.5,0-0.6,0c-2.1,0-4.4-0.1-6.6-0.1
					c-0.6,0-1.1,0-1.7,0C167,34.2,166.8,34.2,166.8,34.2L166.8,34.2z M152,34c1.2,0.1,2.5,0.1,4.3,0.1c1.6,0,2.7,0,2.3,0
					c-0.6-0.1-1.7,0-2.7-0.1c-0.1,0-0.3,0-1.1,0c-0.3,0-1.3,0-2.3,0C151.8,34,151.6,34,152,34z"/>
				<path class="st0" d="M77.7,34.9c0.4,0,0.7,0,1,0c0,0,0,0,0,0c-0.1,0-0.3,0-0.3,0c-0.4,0-0.7,0-1.1,0c-0.1,0-0.2,0-0.1,0
					C77.2,34.9,77.5,34.9,77.7,34.9L77.7,34.9z"/>
			</g>
			<g>
				<path class="st0" d="M422.2,38.4c-0.2,0-0.3,0-0.1-0.1c0.3,0,0.5,0,0.9,0c0.2,0,0.4,0,0.6,0c0.1,0,0.2,0,0.2,0
					c-0.1-0.1,0.1-0.1,0.5-0.1c0.8,0,1.4-0.1,1.3-0.2c0-0.1,0.1-0.1,0.4-0.1c0.3,0,0.4-0.1,0.6-0.1c0.3-0.1,0.7-0.1,1-0.2
					c0.4-0.1,0.8-0.2,1.8-0.2c0.2,0,0.5,0,0.5-0.1c0-0.1,0.4-0.1,0.7-0.1c0.1,0,0.2,0,0.2-0.1c0,0-0.4,0-0.2-0.1c0.1,0,0.4,0,0.6,0
					c0.2,0,0.6,0,0.8,0c0.2,0,0.6,0,0.6,0c0.3-0.1,1.1-0.1,1.7-0.2c0.8-0.1,1.6-0.1,2.5-0.1c0.3,0,0.6,0,0.8,0c0.1,0,0.2,0,0.2,0
					c0,0,0,0-0.1,0c-0.4,0-0.8,0-1.2,0c-0.2,0-0.5,0-0.7,0c-0.1,0-0.2,0-0.2,0c0,0,0.1,0,0.2,0c0.5,0,1,0,1.4,0c0.3,0,0.6,0,0.6-0.1
					c0,0,0.2,0,0.5,0c0.2,0,0.5,0,0.6-0.1c-0.5,0-0.9,0-1.4,0c0,0-0.2,0-0.2,0c0,0,0,0,0.1,0c0.1,0,0.3,0,0.4,0
					c0.9,0,1.8-0.1,2.7-0.2c0.2,0,0.5,0,0.6-0.1c0.1,0,0.2,0,0.3,0c0.4,0,0.9,0,1.5-0.1c0.3,0,0.6-0.1,1-0.1c0.2,0,0.4,0,0.4-0.1
					c0.1-0.1,0.3-0.1,0.6-0.1c0,0,0.2,0,0.2,0c0.3-0.1,0.8-0.1,1.4-0.2c0.2,0,0.5-0.1,0.7-0.1c0.3,0,0.6-0.1,0.9-0.1
					c0.2,0,0.5,0,0.8-0.1c1.1-0.1,2.3-0.2,3.3-0.4c0.1,0,0.2,0,0.2-0.1c0,0-0.1,0-0.2,0c-0.3,0-0.6,0-1,0.1
					c-0.4,0.1-0.9,0.1-1.3,0.2c-0.3,0-0.6,0.1-0.8,0c0,0-0.2,0-0.3,0l-2.4,0.2c-0.1,0-0.3,0-0.4,0c-1.2,0.2-2.5,0.3-3.9,0.3
					c-0.3,0-0.6,0-0.8,0c-0.6,0-1.1,0.1-1.7,0.1c-0.3,0-0.6,0-0.8,0c0.1,0,0.3,0,0.5,0c0.5,0,0.9-0.1,1.3-0.1c0.4-0.1,1-0.1,1.6-0.2
					c0.9-0.1,1.8-0.2,2.7-0.3c0.5,0,1-0.1,1.4-0.1c0.8-0.1,1.6-0.1,2.4-0.2c1-0.1,2-0.2,3-0.3c1.6-0.1,3.1-0.3,4.6-0.4
					c2.7-0.2,5.5-0.4,8.3-0.4c3.2,0,6.5,0.1,9.7,0.4c2.2,0.3,4.4,0.7,6.5,1.3c0.2,0.1,0.5,0.1,0.7,0.2c1.8,0.5,3.6,1.2,5.3,2.1
					c1,0.5,2,1,2.9,1.6c0.3,0.2,0.6,0.4,0.9,0.5c1.7,1.2,3.3,2.6,4.8,4.2c0.4,0.5,0.8,1,1.2,1.5c1.2,1.6,2.4,3.2,3.3,5
					c0.5,1,1,1.9,1.5,2.9l0.1,0.1c0.7,1.4,1.2,2.8,1.8,4.2c0.2,0.5,0.4,1.1,0.6,1.7c0.3,0.8,0.5,1.7,0.8,2.5
					c0.5,1.5,0.9,3.1,1.3,4.6c0.2,0.8,0.4,1.5,0.5,2.3c0,0.2,0.1,0.3,0.1,0.4c0.1,1.1,0.2,1.9,0,1.9c-0.1,0-0.2,0-0.4-0.5
					c-0.1-0.3-0.2-0.3-0.3-0.2c-0.1,0.1-0.3,0-0.5-0.2c0-0.1-0.1-0.1-0.2-0.2c-0.3-0.4-0.6-1.1-0.9-1.7c-0.1-0.2-0.2-0.6-0.4-1.1
					c-0.1-0.3-0.2-0.6-0.3-0.9c-0.2-0.7-0.5-1.5-0.7-2.3c0-0.2-0.1-0.3-0.1-0.4c0-0.2-0.1-0.4-0.2-0.7c-0.1-0.2-0.1-0.4-0.2-0.6
					c-0.2-0.6-0.3-1.2-0.6-1.8c-0.3-0.9-0.7-1.8-1-2.7c0-0.2-0.2-0.4-0.2-0.5c-0.1,0-0.1-0.2-0.2-0.5c-0.2-0.6-0.4-1.2-0.7-1.7
					c-0.2-0.5-0.5-0.9-0.7-1.4c-1.1-2.2-2.4-4.3-3.9-6.2l-0.9-1.1c-0.2-0.2-0.3-0.4-0.5-0.5c-1.3-1.4-2.7-2.5-4.3-3.6
					c-0.5-0.4-1.1-0.7-1.7-1l-1.8-0.9c-2.5-1.2-5.2-2-7.9-2.6c-2.5-0.5-5.1-0.8-7.7-1c-2.4-0.1-4.9-0.1-7.3,0
					c-2.9,0.1-5.7,0.3-8.6,0.6c-1.2,0.1-2.3,0.2-3.5,0.3c-0.6,0.1-1.2,0.1-1.8,0.2c-0.6,0.1-1.2,0.1-1.8,0.2
					c-0.9,0.1-1.8,0.1-2.7,0.2c-0.8,0.1-1.5,0.1-2.2,0.1c-0.4,0-0.8,0-1.2,0.1c-0.4,0-0.7,0.1-1.1,0.1l-2.2,0.1c-0.2,0-0.4,0-0.6,0
					c-0.9,0-1.6,0-2.4,0c-0.3,0-0.7,0-1.1,0c-0.9,0-1.7,0-2.5,0c-0.2,0-0.5,0-0.7,0c-0.4,0-0.9,0-1.3,0c-0.2,0-0.5,0-0.7,0
					c-0.4,0-0.8,0-1.2,0l-4.9-0.1C422.6,38.4,422.4,38.4,422.2,38.4L422.2,38.4z M502.9,62.9C502.9,62.9,502.9,62.9,502.9,62.9
					c0,0.1,0,0.2,0,0.3c0.1,0.3,0.2,0.5,0.2,0.7c0,0,0,0.1,0,0C503.2,63.7,503,63.1,502.9,62.9L502.9,62.9z M471.8,34.5
					c0,0,0.1,0,0.2,0c0.1,0,0.1,0,0.2,0c0,0-0.1,0-0.2,0C471.9,34.5,471.8,34.5,471.8,34.5L471.8,34.5z M444.4,36.2c0,0,0.1,0,0.1,0
					l0.8-0.1l0,0c0.3,0,0.6-0.1,1-0.1c0.2,0,0.4-0.1,0.5-0.1c0,0,0.1,0,0.1,0c0,0-0.1,0-0.2,0c-0.6,0.1-1.2,0.1-1.8,0.2
					C444.8,36.1,444.6,36.2,444.4,36.2C444.4,36.2,444.4,36.2,444.4,36.2L444.4,36.2z M440.3,36.5c0.3,0,0.7,0,1.2,0
					c0.4,0,0.7-0.1,0.6-0.1c-0.2,0-0.5,0-0.7,0c0,0-0.1,0-0.3,0c-0.1,0-0.4,0-0.6,0C440.3,36.4,440.2,36.5,440.3,36.5z"/>
				<path class="st0" d="M420,38.4c0.1,0,0.2,0,0.3,0c0,0,0,0,0,0s-0.1,0-0.1,0c-0.1,0-0.2,0-0.3,0c0,0,0,0,0,0
					C419.9,38.4,420,38.4,420,38.4z"/>
			</g>
			<g>
				<path class="st0" d="M508.5,86.9c-0.3-1.3-0.3-1.7-0.1-0.9c0.4,1.7,0.8,3.5,1.3,5.8c0.3,1.3,0.5,2.5,0.9,4.1
					c0.1,0.4,0.3,1.2,0.3,1.2c-0.1-1,0.2,0.5,0.7,3.1c1,4.9,1.8,8.9,1.9,8.5c0-0.3,0.2,0.5,0.7,2.9c0.4,1.8,0.6,2.7,0.8,3.7
					c0.4,2,0.9,4.3,1.2,6.2c0.5,2.5,1,5.5,1.8,11.6c0.2,1.6,0.4,3.3,0.4,3.4c0.1,0.2,0.4,2.8,0.6,4.9c0.1,0.8,0.2,1.4,0.2,1.3
					c0-0.2-0.2-2.4,0-1.1c0.1,1,0.2,2.8,0.3,3.7c0.1,1.7,0.3,3.7,0.4,5.3c0.1,1.4,0.2,3.7,0.2,4.1c0.2,1.9,0.2,7.4,0,11.3
					c-0.2,5.1-0.8,11-2.3,16.7c-0.5,1.8-1,3.7-1.7,5.5c-0.1,0.4-0.4,1-0.4,1.1c0,0.1,0.1-0.3,0.3-0.6c1-2.5,1.7-5,2.3-7.7
					c0.3-1.6,0.7-3.2,0.9-4.7c0.1-0.7,0.2-1.4,0.3-1.7c0.1-0.3-0.1,0.6-0.2,1.4c-0.5,3.2-1.2,6.4-2.1,9.5c-0.6,2.1-1.2,3.6-1.3,3.9
					c0,0.1-0.2,0.5-0.4,1.1c-0.2,0.5-0.5,1.2-0.8,1.8c-0.7,1.5-1.6,2.9-2,3.7c1.8-2.7,3.1-5.6,4.2-8.7c0.1-0.3,0.4-1,0.4-1.1
					c0-0.1-0.1,0.2-0.2,0.6c-0.3,0.8-0.6,1.8-1,2.7c-1.2,2.9-2.6,5.7-4.5,8.2c-1.8,2.5-4.1,4.7-6.9,6.5c-0.7,0.5-1.4,0.8-2.1,1.2
					c-0.6,0.3-1.2,0.6-1.6,0.8c-0.3,0.1-1.4,0.6-2,0.8c-2.9,1-6.1,1.7-9.8,2.2c-2.1,0.2-4.3,0.4-6.4,0.4c-1.5,0-2.5,0.1-3,0.1
					c-0.8,0-1.8,0.1-3.7,0c-0.1,0-1.1,0-1.3,0c-2.2,0.1-5.5,0.1-9.1,0.1c-1.6,0-3.2,0-4.7,0c-2.1,0-4,0-6,0c-1.6,0-3.6,0-5.4,0
					c-7.4,0-14.9,0-22,0c-0.8,0-1.4,0-1.3,0c0,0,0.8,0,1.6,0c2.1,0,4.3,0,6.3,0c2.8,0,5.7,0,8.4,0c2.2,0,3.8,0,5,0
					c0.1,0,1.5,0,2.2,0c5.4,0,10.7,0,16.1,0c0.8,0,1.7,0,2.3,0c4.1,0,8.3,0,12.6-0.1c4.3-0.1,8.7-0.3,13.1-1.1
					c1.9-0.4,3.7-0.9,5.5-1.6c1.8-0.7,3.6-1.5,5.2-2.5c1.7-1,3.2-2.3,4.6-3.6c1.3-1.2,2.6-2.9,3.4-4.1c-0.4,0.7-1.4,1.9-2.2,2.9
					c-2.1,2.5-4.7,4.4-7.1,5.7c-2.5,1.5-6.4,2.9-10.2,3.6c-6.2,1.2-12.4,1.1-18.3,1.1c-3.1,0-6.3,0-9.6,0c-5.4,0-10.7,0-16,0
					c-6.6,0-13.3,0-20-0.1c-10.2-0.1-20.4-0.1-30.6-0.2c-18-0.1-35.9-0.3-53.9-0.4c-20.9-0.2-41.9-0.5-62.8-0.7
					c-14.2-0.2-28.4-0.4-42.6-0.6l-4.8-0.1c-12.1-0.2-24.1-0.4-36.1-0.5c-6.9-0.1-13.9-0.2-20.9-0.3c-2.1,0-4.3-0.1-6.4-0.1
					c-13.3-0.2-26.6-0.4-40.1-0.6c-4-0.1-8.1-0.1-12-0.2c-12.5-0.2-25.1-0.4-37.8-0.6c-7-0.1-14-0.2-20.9-0.3c-0.3,0-0.5,0-0.8,0
					c-4.8-0.1-9.6-0.1-14.4-0.2c-4.8-0.1-9.7-0.1-14.6-0.9c-1.9-0.3-3.8-0.7-5.6-1.2c-1.9-0.5-3.7-1.3-5.4-2.2
					c-1.3-0.7-2.5-1.5-3.7-2.3c-1.2-0.9-2.3-1.9-3.3-3.1c-2-2.3-3.3-5-4.2-7.8c-1.7-5.1-2.1-10.4-2.2-15.6
					c-0.1-5.2,0.2-10.4,0.5-15.5c0.2-2.6,0.3-5.2,0.4-7.7c0.1-2.5,0.1-4.9,0.1-7.3c0-1,0-2.2,0-3c0.1-3.6,0.2-6.7,0.2-8.9
					c0.1-2.2,0.2-3.5,0.3-3.5c0.1-0.1,0.2,0.4,0.3,3.7c0.1,2,0.1,2,0.2,1.8c0.2-0.5,0.3,0.2,0.4,1.8c0,0.4,0.1,1,0.1,1.7
					c0.2,3.1,0.3,7.6,0.4,12.5c0,1.7,0,4.3-0.2,7.5c-0.1,2.4-0.2,4.4-0.3,6.5c-0.2,4.9-0.4,10.5,0.2,16c0.1,1,0.3,2.3,0.3,2.8
					c0.2,1.3,0.3,2.7,0.9,4.7c0.4,1.2,0.8,2.7,1.5,4.1c1.6,3.7,4,6.5,7.6,8.7c2.6,1.6,5.5,2.7,8.6,3.4c3.1,0.7,6.3,1.1,9.3,1.3
					c1,0.1,3.1,0.1,3.3,0.1c0.4,0,1.8,0,3.8,0c4.1,0.1,8.3,0.1,12.4,0.2c3.4,0,6.8,0.1,10.3,0.1c16.6,0.2,33.3,0.4,49.9,0.6
					c3.2,0,6.4,0.1,9.6,0.1c1.6,0,3.2,0,4.8,0.1c12.9,0.2,25.6,0.3,38.5,0.5c9.1,0.1,18.2,0.2,27.3,0.3c19,0.2,38,0.5,57.1,0.7
					c17.4,0.2,34.9,0.4,52.3,0.6c16.3,0.2,32.7,0.3,49,0.5c19.1,0.1,38.1,0.3,57.2,0.4c7.8,0,15.5,0.1,23.3,0.1c4,0,8.1,0,12,0
					c4,0,8,0,12,0c5.9,0,11.8,0,17.6,0c5,0,9.6-0.1,13.9-0.7c2.6-0.4,4.8-0.9,7.2-1.8c2.1-0.8,4.1-1.8,6-3.1
					c3.7-2.6,6.6-6.4,8.6-10.6c0.6-1.2,1.1-2.5,1.5-3.6c1.8-5.1,2.8-10.1,3.5-15.1c0.3-2.3,0.5-4.7,0.6-7.1
					c0.3-5.7,0.2-11.3-0.1-16.6c-0.1-1.5-0.2-3-0.3-4.7c-0.2-2.9-0.5-5.8-0.8-8.3c-0.1-1.3-0.4-3.2-0.6-4.7
					c-0.4-2.7-0.7-5.3-1.1-7.9c-1.6-10.8-3.8-21.5-6.1-32.2C509,89.4,508.7,88.1,508.5,86.9L508.5,86.9z M9.7,185.8
					c0.1,0.2,0-0.1-0.1-0.4c-0.1-0.3-0.2-0.9-0.3-1.4c-0.4-1.7-0.7-3.6-0.9-5.1c0-0.3-0.1-0.4,0-0.2c0.1,0.8,0.3,2.3,0.5,3.7
					C9.2,183.8,9.5,185.1,9.7,185.8z M299,208.5c0.2,0-0.4,0-1,0c-0.4,0-0.8,0-1.2,0c0.1,0,0.4,0,1,0
					C298.3,208.5,298.9,208.5,299,208.5L299,208.5z M479.1,209.3c0,0-0.5,0-0.8,0c-1.8,0-3.7,0-5.5,0h0c-2.1,0-4.3,0-6.3,0
					c-1.3,0-2.5,0-3.6,0c-0.3,0-0.5,0-0.4,0c0.1,0,0.9,0,1.2,0c3.9,0,7.9,0,11.8,0c1,0,2.1,0,3,0
					C478.8,209.4,479.1,209.4,479.1,209.3L479.1,209.3z M505.2,203.3c-1.8,1.2-4,2.4-7.1,3.5c-2.8,1-4.7,1.3-4,1.2
					c1.1-0.2,3.1-0.7,4.8-1.4c0.2-0.1,0.5-0.2,2-0.8c0.3-0.1,0.8-0.4,1.5-0.7c0.7-0.4,1.5-0.8,2.3-1.4
					C505.5,203.2,505.8,202.9,505.2,203.3L505.2,203.3z"/>
				<path class="st0" d="M505.4,72.8c0.2,0.7,0.3,1.2,0.4,1.7c0,0,0,0,0-0.1c0-0.1-0.1-0.5-0.1-0.6c-0.2-0.7-0.3-1.3-0.4-1.9
					c0-0.2-0.1-0.3-0.1-0.3C505.2,72,505.3,72.5,505.4,72.8L505.4,72.8z"/>
			</g>
		</g>
	</g>
</g>
</svg>
