<?xml version="1.0" encoding="UTF-8"?>
<svg id="Capa_2" data-name="Capa 2" xmlns="http://www.w3.org/2000/svg" viewBox="0 0 722 240">
  <defs>
    <style>
      .cls-1 {
        fill: #4d2987;
      }
    </style>
  </defs>
  <g id="Capa_1-2" data-name="Capa 1">
    <g>
      <path class="cls-1" d="m1.372,177.301c.907,4.777,2.337,8.969,4.498,12.212,5.804,8.71,17.521,11.222,27.978,10.93,118.227-3.306,237.119-1.853,355.501-1.853,96.759,0,193.52-.238,290.28-.262,16.223-.004,32.747-3.064,39.179-19.896,7.837-20.509-.962-45.643-3.076-66.624-2.495-24.759-2.179-49.704-2.485-74.555-.085-6.943-.201-14.051-2.649-20.548C705.071,2.041,689.221-.313,675.481.031c-82.976,2.074-166.005,2.475-249.006,3.583-67.859.913-135.717,1.809-203.576,2.698C158.879,7.151,90.046.559,26.696,9.337c-5.291.733-10.891,1.811-14.776,5.48-4.306,4.067-5.517,10.363-6.284,16.239-3.662,28.073-3.59,56.425-3.376,84.68.111,14.676-4.472,42.686-.887,61.564Z"/>
      <polygon class="cls-1" points="344.019 188.836 384.723 240 426.552 188.723 344.019 188.836"/>
    </g>
  </g>
</svg>