<?xml version="1.0" encoding="UTF-8"?>
<svg id="Capa_2" data-name="Capa 2" xmlns="http://www.w3.org/2000/svg" viewBox="0 0 1094 378">
  <defs>
    <style>
      .cls-1 {
        fill: #fff;
      }
    </style>
  </defs>
  <g id="Capa_1-2" data-name="Capa 1">
    <path class="cls-1" d="m5.905,96.528c.117-3.564.237-7.129.361-10.696.486-14,2.067-28.422,8.388-40.553,22.695-43.553,88.177-15.585,122.576-13.042,66.43,4.911,134.017,1.292,200.627,1.292h109.47V0s35.575,33.529,35.575,33.529c141.425-1.972,282.999-2.725,424.404.88,34.962.891,69.968,1.451,104.856,4.417,24.018,2.042,46.205,2.066,63.63,23.725,32.641,40.571,12.261,115.874,8.18,163.673-2.86,33.504-2.388,66.449-8.779,99.637-1.274,6.615-2.869,13.537-7.114,18.395-4.266,4.881-10.5,6.863-16.481,8.354-63.868,15.918-129.865,11.843-194.835,12.568-73.975.825-147.949,1.79-221.921,2.895-106.946,1.597-213.816,6.909-320.762,8.493-56.973.845-113.963,1.566-170.936.347-34.432-.737-109.75,10.996-131.876-28.372-17.938-31.917-9.073-79.231-9.113-114.693-.052-45.805,2.254-91.559,3.75-137.321Z"/>
  </g>
</svg>