<?xml version="1.0" encoding="UTF-8"?>
<svg id="Capa_2" data-name="Capa 2" xmlns="http://www.w3.org/2000/svg" viewBox="0 0 754 270">
  <defs>
    <style>
      .cls-1 {
        fill: #fff;
      }
    </style>
  </defs>
  <g id="Capa_1-2" data-name="Capa 1">
    <path class="cls-1" d="m55.07,13.368c-3.277,1.196-6.047,2.779-8.101,4.857-16.407,16.611-8.795,75.628-9.401,98.076-.611,22.648-1.142,45.298-1.577,67.95H0s38.658,30.321,38.658,30.321c-4.464,15.816-8.782,44.938,10.398,52.837,6.347,2.614,13.419,2.618,20.281,2.584,213.292-1.07,426.581-2.62,639.875-2.023,9.406.026,19.195-.032,27.642-4.175,30.808-15.115,10.833-84.036,10.171-110.776-.847-34.218,1.631-68.476-.427-102.673-1.778-29.53-3.146-51.473-37.848-50.302-83.048,2.802-166.148,3.342-249.221,4.839-114.353,2.073-228.706,4.093-343.06,6.095-14.91.261-44.712-3.699-61.398,2.389Z"/>
  </g>
</svg>